%TF.GenerationSoftware,KiCad,Pcbnew,8.0.8*%
%TF.CreationDate,2025-02-13T11:47:36+09:00*%
%TF.ProjectId,GESC,47455343-2e6b-4696-9361-645f70636258,rev?*%
%TF.SameCoordinates,Original*%
%TF.FileFunction,Paste,Top*%
%TF.FilePolarity,Positive*%
%FSLAX46Y46*%
G04 Gerber Fmt 4.6, Leading zero omitted, Abs format (unit mm)*
G04 Created by KiCad (PCBNEW 8.0.8) date 2025-02-13 11:47:36*
%MOMM*%
%LPD*%
G01*
G04 APERTURE LIST*
G04 Aperture macros list*
%AMRoundRect*
0 Rectangle with rounded corners*
0 $1 Rounding radius*
0 $2 $3 $4 $5 $6 $7 $8 $9 X,Y pos of 4 corners*
0 Add a 4 corners polygon primitive as box body*
4,1,4,$2,$3,$4,$5,$6,$7,$8,$9,$2,$3,0*
0 Add four circle primitives for the rounded corners*
1,1,$1+$1,$2,$3*
1,1,$1+$1,$4,$5*
1,1,$1+$1,$6,$7*
1,1,$1+$1,$8,$9*
0 Add four rect primitives between the rounded corners*
20,1,$1+$1,$2,$3,$4,$5,0*
20,1,$1+$1,$4,$5,$6,$7,0*
20,1,$1+$1,$6,$7,$8,$9,0*
20,1,$1+$1,$8,$9,$2,$3,0*%
G04 Aperture macros list end*
%ADD10RoundRect,0.250000X-0.325000X-1.100000X0.325000X-1.100000X0.325000X1.100000X-0.325000X1.100000X0*%
%ADD11RoundRect,0.200000X0.200000X0.275000X-0.200000X0.275000X-0.200000X-0.275000X0.200000X-0.275000X0*%
%ADD12RoundRect,0.250000X0.325000X1.100000X-0.325000X1.100000X-0.325000X-1.100000X0.325000X-1.100000X0*%
%ADD13R,0.900000X2.200000*%
%ADD14R,0.800000X2.200000*%
%ADD15R,8.080000X0.800000*%
%ADD16R,10.000000X8.500000*%
%ADD17R,5.200000X3.500000*%
%ADD18R,1.000000X2.580000*%
%ADD19RoundRect,0.250000X-1.950000X-1.000000X1.950000X-1.000000X1.950000X1.000000X-1.950000X1.000000X0*%
%ADD20RoundRect,0.135000X-0.135000X-0.185000X0.135000X-0.185000X0.135000X0.185000X-0.135000X0.185000X0*%
%ADD21R,2.350000X0.850000*%
%ADD22RoundRect,0.200000X-0.200000X-0.275000X0.200000X-0.275000X0.200000X0.275000X-0.200000X0.275000X0*%
G04 APERTURE END LIST*
D10*
%TO.C,C22*%
X168500000Y-30100000D03*
X171450000Y-30100000D03*
%TD*%
%TO.C,C24*%
X168500000Y-36500000D03*
X171450000Y-36500000D03*
%TD*%
D11*
%TO.C,R14*%
X119575000Y-41700000D03*
X117925000Y-41700000D03*
%TD*%
%TO.C,R11*%
X119525000Y-67900000D03*
X117875000Y-67900000D03*
%TD*%
D12*
%TO.C,C24*%
X36125000Y-77250000D03*
X33175000Y-77250000D03*
%TD*%
D10*
%TO.C,C18*%
X168500000Y-83700000D03*
X171450000Y-83700000D03*
%TD*%
%TO.C,C21*%
X168500000Y-26900000D03*
X171450000Y-26900000D03*
%TD*%
D13*
%TO.C,Q13*%
X121380000Y-44950000D03*
D14*
X122600000Y-44950000D03*
X123800000Y-44950000D03*
X125000000Y-44950000D03*
X126200000Y-44950000D03*
X127400000Y-44950000D03*
X128600000Y-44950000D03*
D15*
X126240000Y-44250000D03*
D13*
X129820000Y-44950000D03*
D16*
X125600000Y-37650000D03*
%TD*%
D17*
%TO.C,R9*%
X112500000Y-73390000D03*
X112500000Y-81010000D03*
%TD*%
D11*
%TO.C,R8*%
X119525000Y-66400000D03*
X117875000Y-66400000D03*
%TD*%
%TO.C,R4*%
X84275000Y-71250000D03*
X82625000Y-71250000D03*
%TD*%
%TO.C,R56*%
X154575000Y-42950000D03*
X152925000Y-42950000D03*
%TD*%
D12*
%TO.C,C8*%
X36125000Y-67650000D03*
X33175000Y-67650000D03*
%TD*%
D18*
%TO.C,J2*%
X117000000Y-55085000D03*
X117000000Y-50915000D03*
X119000000Y-55085000D03*
X119000000Y-50915000D03*
X121000000Y-55085000D03*
X121000000Y-50915000D03*
%TD*%
D13*
%TO.C,Q9*%
X107680000Y-44950000D03*
D14*
X108900000Y-44950000D03*
X110100000Y-44950000D03*
X111300000Y-44950000D03*
X112500000Y-44950000D03*
X113700000Y-44950000D03*
X114900000Y-44950000D03*
D15*
X112540000Y-44250000D03*
D13*
X116120000Y-44950000D03*
D16*
X111900000Y-37650000D03*
%TD*%
D13*
%TO.C,Q5*%
X61830000Y-69950000D03*
D14*
X63050000Y-69950000D03*
X64250000Y-69950000D03*
X65450000Y-69950000D03*
X66650000Y-69950000D03*
X67850000Y-69950000D03*
X69050000Y-69950000D03*
D15*
X66690000Y-69250000D03*
D13*
X70270000Y-69950000D03*
D16*
X66050000Y-62650000D03*
%TD*%
D10*
%TO.C,C7*%
X168500000Y-49300000D03*
X171450000Y-49300000D03*
%TD*%
D11*
%TO.C,R53*%
X84525000Y-41850000D03*
X82875000Y-41850000D03*
%TD*%
D12*
%TO.C,C6*%
X36125000Y-61250000D03*
X33175000Y-61250000D03*
%TD*%
D17*
%TO.C,R55*%
X56100000Y-73390000D03*
X56100000Y-81010000D03*
%TD*%
D10*
%TO.C,C9*%
X168500000Y-42900000D03*
X171450000Y-42900000D03*
%TD*%
D11*
%TO.C,R7*%
X119575000Y-43150000D03*
X117925000Y-43150000D03*
%TD*%
D10*
%TO.C,C2*%
X168500000Y-70900000D03*
X171450000Y-70900000D03*
%TD*%
D19*
%TO.C,*%
X166400000Y-57000000D03*
%TD*%
D10*
%TO.C,C4*%
X168500000Y-64500000D03*
X171450000Y-64500000D03*
%TD*%
%TO.C,C20*%
X168500000Y-23700000D03*
X171450000Y-23700000D03*
%TD*%
%TO.C,C5*%
X168500000Y-61300000D03*
X171450000Y-61300000D03*
%TD*%
D13*
%TO.C,Q18*%
X142480000Y-69950000D03*
D14*
X143700000Y-69950000D03*
X144900000Y-69950000D03*
X146100000Y-69950000D03*
X147300000Y-69950000D03*
X148500000Y-69950000D03*
X149700000Y-69950000D03*
D15*
X147340000Y-69250000D03*
D13*
X150920000Y-69950000D03*
D16*
X146700000Y-62650000D03*
%TD*%
D13*
%TO.C,Q12*%
X107680000Y-69950000D03*
D14*
X108900000Y-69950000D03*
X110100000Y-69950000D03*
X111300000Y-69950000D03*
X112500000Y-69950000D03*
X113700000Y-69950000D03*
X114900000Y-69950000D03*
D15*
X112540000Y-69250000D03*
D13*
X116120000Y-69950000D03*
D16*
X111900000Y-62650000D03*
%TD*%
D10*
%TO.C,C10*%
X168500000Y-39700000D03*
X171450000Y-39700000D03*
%TD*%
D12*
%TO.C,C9*%
X36125000Y-70850000D03*
X33175000Y-70850000D03*
%TD*%
D11*
%TO.C,R6*%
X119525000Y-70900000D03*
X117875000Y-70900000D03*
%TD*%
D10*
%TO.C,C8*%
X168500000Y-46100000D03*
X171450000Y-46100000D03*
%TD*%
D12*
%TO.C,C15*%
X36125000Y-36450000D03*
X33175000Y-36450000D03*
%TD*%
D20*
%TO.C,TH1*%
X119990000Y-47600000D03*
X121010000Y-47600000D03*
%TD*%
D10*
%TO.C,C1*%
X168500000Y-74100000D03*
X171450000Y-74100000D03*
%TD*%
D12*
%TO.C,C7*%
X36125000Y-64450000D03*
X33175000Y-64450000D03*
%TD*%
D17*
%TO.C,R16*%
X66650000Y-73390000D03*
X66650000Y-81010000D03*
%TD*%
D13*
%TO.C,Q6*%
X51280000Y-69950000D03*
D14*
X52500000Y-69950000D03*
X53700000Y-69950000D03*
X54900000Y-69950000D03*
X56100000Y-69950000D03*
X57300000Y-69950000D03*
X58500000Y-69950000D03*
D15*
X56140000Y-69250000D03*
D13*
X59720000Y-69950000D03*
D16*
X55500000Y-62650000D03*
%TD*%
D19*
%TO.C,*%
X38100000Y-57000000D03*
%TD*%
D12*
%TO.C,C10*%
X36125000Y-74050000D03*
X33175000Y-74050000D03*
%TD*%
D21*
%TO.C,J4*%
X85175000Y-76000000D03*
X82825000Y-78000000D03*
%TD*%
D12*
%TO.C,C3*%
X36125000Y-46050000D03*
X33175000Y-46050000D03*
%TD*%
D18*
%TO.C,J5*%
X82000000Y-55085000D03*
X82000000Y-50915000D03*
X84000000Y-55085000D03*
X84000000Y-50915000D03*
X86000000Y-55085000D03*
X86000000Y-50915000D03*
%TD*%
D13*
%TO.C,Q11*%
X86580000Y-44950000D03*
D14*
X87800000Y-44950000D03*
X89000000Y-44950000D03*
X90200000Y-44950000D03*
X91400000Y-44950000D03*
X92600000Y-44950000D03*
X93800000Y-44950000D03*
D15*
X91440000Y-44250000D03*
D13*
X95020000Y-44950000D03*
D16*
X90800000Y-37650000D03*
%TD*%
D11*
%TO.C,R49*%
X84525000Y-43350000D03*
X82875000Y-43350000D03*
%TD*%
D13*
%TO.C,Q4*%
X72380000Y-69950000D03*
D14*
X73600000Y-69950000D03*
X74800000Y-69950000D03*
X76000000Y-69950000D03*
X77200000Y-69950000D03*
X78400000Y-69950000D03*
X79600000Y-69950000D03*
D15*
X77240000Y-69250000D03*
D13*
X80820000Y-69950000D03*
D16*
X76600000Y-62650000D03*
%TD*%
D13*
%TO.C,Q1*%
X72380000Y-44950000D03*
D14*
X73600000Y-44950000D03*
X74800000Y-44950000D03*
X76000000Y-44950000D03*
X77200000Y-44950000D03*
X78400000Y-44950000D03*
X79600000Y-44950000D03*
D15*
X77240000Y-44250000D03*
D13*
X80820000Y-44950000D03*
D16*
X76600000Y-37650000D03*
%TD*%
D12*
%TO.C,C2*%
X36125000Y-42850000D03*
X33175000Y-42850000D03*
%TD*%
%TO.C,C16*%
X36125000Y-33250000D03*
X33175000Y-33250000D03*
%TD*%
D11*
%TO.C,R5*%
X119575000Y-46100000D03*
X117925000Y-46100000D03*
%TD*%
D17*
%TO.C,R17*%
X91400000Y-73390000D03*
X91400000Y-81010000D03*
%TD*%
D11*
%TO.C,R15*%
X119525000Y-69400000D03*
X117875000Y-69400000D03*
%TD*%
D12*
%TO.C,C23*%
X36125000Y-80450000D03*
X33175000Y-80450000D03*
%TD*%
D17*
%TO.C,R12*%
X101950000Y-73390000D03*
X101950000Y-81010000D03*
%TD*%
D13*
%TO.C,Q7*%
X97130000Y-44950000D03*
D14*
X98350000Y-44950000D03*
X99550000Y-44950000D03*
X100750000Y-44950000D03*
X101950000Y-44950000D03*
X103150000Y-44950000D03*
X104350000Y-44950000D03*
D15*
X101990000Y-44250000D03*
D13*
X105570000Y-44950000D03*
D16*
X101350000Y-37650000D03*
%TD*%
D12*
%TO.C,C22*%
X36125000Y-83650000D03*
X33175000Y-83650000D03*
%TD*%
D11*
%TO.C,R18*%
X154575000Y-46550000D03*
X152925000Y-46550000D03*
%TD*%
D12*
%TO.C,C19*%
X36125000Y-23650000D03*
X33175000Y-23650000D03*
%TD*%
D11*
%TO.C,R1*%
X84525000Y-44850000D03*
X82875000Y-44850000D03*
%TD*%
D17*
%TO.C,R58*%
X136750000Y-73390000D03*
X136750000Y-81010000D03*
%TD*%
D10*
%TO.C,C3*%
X168500000Y-67700000D03*
X171450000Y-67700000D03*
%TD*%
D11*
%TO.C,R3*%
X84525000Y-46750000D03*
X82875000Y-46750000D03*
%TD*%
D17*
%TO.C,R52*%
X126200000Y-73390000D03*
X126200000Y-81010000D03*
%TD*%
%TO.C,R61*%
X147300000Y-73390000D03*
X147300000Y-81010000D03*
%TD*%
D12*
%TO.C,C17*%
X36125000Y-26850000D03*
X33175000Y-26850000D03*
%TD*%
D11*
%TO.C,R50*%
X84275000Y-68350000D03*
X82625000Y-68350000D03*
%TD*%
%TO.C,R54*%
X84275000Y-66850000D03*
X82625000Y-66850000D03*
%TD*%
D13*
%TO.C,Q10*%
X97130000Y-69950000D03*
D14*
X98350000Y-69950000D03*
X99550000Y-69950000D03*
X100750000Y-69950000D03*
X101950000Y-69950000D03*
X103150000Y-69950000D03*
X104350000Y-69950000D03*
D15*
X101990000Y-69250000D03*
D13*
X105570000Y-69950000D03*
D16*
X101350000Y-62650000D03*
%TD*%
D11*
%TO.C,R60*%
X154425000Y-69600000D03*
X152775000Y-69600000D03*
%TD*%
D21*
%TO.C,J3*%
X120175000Y-76000000D03*
X117825000Y-78000000D03*
%TD*%
D11*
%TO.C,R48*%
X154575000Y-41500000D03*
X152925000Y-41500000D03*
%TD*%
%TO.C,R51*%
X154425000Y-66600000D03*
X152775000Y-66600000D03*
%TD*%
D13*
%TO.C,Q15*%
X131930000Y-44950000D03*
D14*
X133150000Y-44950000D03*
X134350000Y-44950000D03*
X135550000Y-44950000D03*
X136750000Y-44950000D03*
X137950000Y-44950000D03*
X139150000Y-44950000D03*
D15*
X136790000Y-44250000D03*
D13*
X140370000Y-44950000D03*
D16*
X136150000Y-37650000D03*
%TD*%
D10*
%TO.C,C23*%
X168500000Y-33300000D03*
X171450000Y-33300000D03*
%TD*%
D19*
%TO.C,*%
X158400000Y-57000000D03*
%TD*%
D13*
%TO.C,Q16*%
X131930000Y-69950000D03*
D14*
X133150000Y-69950000D03*
X134350000Y-69950000D03*
X135550000Y-69950000D03*
X136750000Y-69950000D03*
X137950000Y-69950000D03*
X139150000Y-69950000D03*
D15*
X136790000Y-69250000D03*
D13*
X140370000Y-69950000D03*
D16*
X136150000Y-62650000D03*
%TD*%
D13*
%TO.C,Q2*%
X61830000Y-44950000D03*
D14*
X63050000Y-44950000D03*
X64250000Y-44950000D03*
X65450000Y-44950000D03*
X66650000Y-44950000D03*
X67850000Y-44950000D03*
X69050000Y-44950000D03*
D15*
X66690000Y-44250000D03*
D13*
X70270000Y-44950000D03*
D16*
X66050000Y-37650000D03*
%TD*%
D22*
%TO.C,R47*%
X152775000Y-71800000D03*
X154425000Y-71800000D03*
%TD*%
D19*
%TO.C,*%
X46100000Y-57000000D03*
%TD*%
D12*
%TO.C,C4*%
X36125000Y-49250000D03*
X33175000Y-49250000D03*
%TD*%
D11*
%TO.C,R57*%
X154425000Y-68100000D03*
X152775000Y-68100000D03*
%TD*%
%TO.C,R10*%
X119575000Y-44600000D03*
X117925000Y-44600000D03*
%TD*%
D13*
%TO.C,Q17*%
X142480000Y-44950000D03*
D14*
X143700000Y-44950000D03*
X144900000Y-44950000D03*
X146100000Y-44950000D03*
X147300000Y-44950000D03*
X148500000Y-44950000D03*
X149700000Y-44950000D03*
D15*
X147340000Y-44250000D03*
D13*
X150920000Y-44950000D03*
D16*
X146700000Y-37650000D03*
%TD*%
D13*
%TO.C,Q14*%
X121380000Y-70000000D03*
D14*
X122600000Y-70000000D03*
X123800000Y-70000000D03*
X125000000Y-70000000D03*
X126200000Y-70000000D03*
X127400000Y-70000000D03*
X128600000Y-70000000D03*
D15*
X126240000Y-69300000D03*
D13*
X129820000Y-70000000D03*
D16*
X125600000Y-62700000D03*
%TD*%
D13*
%TO.C,Q8*%
X86580000Y-69950000D03*
D14*
X87800000Y-69950000D03*
X89000000Y-69950000D03*
X90200000Y-69950000D03*
X91400000Y-69950000D03*
X92600000Y-69950000D03*
X93800000Y-69950000D03*
D15*
X91440000Y-69250000D03*
D13*
X95020000Y-69950000D03*
D16*
X90800000Y-62650000D03*
%TD*%
D10*
%TO.C,C6*%
X168500000Y-52500000D03*
X171450000Y-52500000D03*
%TD*%
D13*
%TO.C,Q3*%
X51280000Y-44950000D03*
D14*
X52500000Y-44950000D03*
X53700000Y-44950000D03*
X54900000Y-44950000D03*
X56100000Y-44950000D03*
X57300000Y-44950000D03*
X58500000Y-44950000D03*
D15*
X56140000Y-44250000D03*
D13*
X59720000Y-44950000D03*
D16*
X55500000Y-37650000D03*
%TD*%
D12*
%TO.C,C5*%
X36125000Y-52450000D03*
X33175000Y-52450000D03*
%TD*%
D21*
%TO.C,J6*%
X153675000Y-76000000D03*
X151325000Y-78000000D03*
%TD*%
D12*
%TO.C,C18*%
X36125000Y-30050000D03*
X33175000Y-30050000D03*
%TD*%
D11*
%TO.C,R59*%
X154575000Y-44400000D03*
X152925000Y-44400000D03*
%TD*%
D10*
%TO.C,C16*%
X168500000Y-80500000D03*
X171450000Y-80500000D03*
%TD*%
D11*
%TO.C,R2*%
X84275000Y-69750000D03*
X82625000Y-69750000D03*
%TD*%
D10*
%TO.C,C15*%
X168500000Y-77300000D03*
X171450000Y-77300000D03*
%TD*%
D18*
%TO.C,J1*%
X151500000Y-55085000D03*
X151500000Y-50915000D03*
X153500000Y-55085000D03*
X153500000Y-50915000D03*
%TD*%
D12*
%TO.C,C1*%
X36125000Y-39650000D03*
X33175000Y-39650000D03*
%TD*%
D17*
%TO.C,R13*%
X77200000Y-73390000D03*
X77200000Y-81010000D03*
%TD*%
M02*
