%TF.GenerationSoftware,KiCad,Pcbnew,8.0.8*%
%TF.CreationDate,2025-02-13T11:47:36+09:00*%
%TF.ProjectId,GESC,47455343-2e6b-4696-9361-645f70636258,rev?*%
%TF.SameCoordinates,Original*%
%TF.FileFunction,Legend,Top*%
%TF.FilePolarity,Positive*%
%FSLAX46Y46*%
G04 Gerber Fmt 4.6, Leading zero omitted, Abs format (unit mm)*
G04 Created by KiCad (PCBNEW 8.0.8) date 2025-02-13 11:47:36*
%MOMM*%
%LPD*%
G01*
G04 APERTURE LIST*
%ADD10C,0.100000*%
%ADD11C,0.150000*%
%ADD12C,0.120000*%
%ADD13C,0.250000*%
%ADD14C,0.400000*%
G04 APERTURE END LIST*
D10*
X33100000Y-17000000D02*
X51100000Y-17000000D01*
X51100000Y-57000000D01*
X33100000Y-57000000D01*
X33100000Y-17000000D01*
X154500000Y-17000000D02*
X172500000Y-17000000D01*
X172500000Y-57000000D01*
X154500000Y-57000000D01*
X154500000Y-17000000D01*
X33100000Y-57000000D02*
X51100000Y-57000000D01*
X51100000Y-97000000D01*
X33100000Y-97000000D01*
X33100000Y-57000000D01*
X154500000Y-17000000D02*
X172500000Y-17000000D01*
X172500000Y-57000000D01*
X154500000Y-57000000D01*
X154500000Y-17000000D01*
X154500000Y-57000000D02*
X172500000Y-57000000D01*
X172500000Y-97000000D01*
X154500000Y-97000000D01*
X154500000Y-57000000D01*
X154500000Y-57000000D02*
X172500000Y-57000000D01*
X172500000Y-97000000D01*
X154500000Y-97000000D01*
X154500000Y-57000000D01*
D11*
X115344819Y-53293333D02*
X116059104Y-53293333D01*
X116059104Y-53293333D02*
X116201961Y-53340952D01*
X116201961Y-53340952D02*
X116297200Y-53436190D01*
X116297200Y-53436190D02*
X116344819Y-53579047D01*
X116344819Y-53579047D02*
X116344819Y-53674285D01*
X115440057Y-52864761D02*
X115392438Y-52817142D01*
X115392438Y-52817142D02*
X115344819Y-52721904D01*
X115344819Y-52721904D02*
X115344819Y-52483809D01*
X115344819Y-52483809D02*
X115392438Y-52388571D01*
X115392438Y-52388571D02*
X115440057Y-52340952D01*
X115440057Y-52340952D02*
X115535295Y-52293333D01*
X115535295Y-52293333D02*
X115630533Y-52293333D01*
X115630533Y-52293333D02*
X115773390Y-52340952D01*
X115773390Y-52340952D02*
X116344819Y-52912380D01*
X116344819Y-52912380D02*
X116344819Y-52293333D01*
X83666666Y-73394819D02*
X83666666Y-74109104D01*
X83666666Y-74109104D02*
X83619047Y-74251961D01*
X83619047Y-74251961D02*
X83523809Y-74347200D01*
X83523809Y-74347200D02*
X83380952Y-74394819D01*
X83380952Y-74394819D02*
X83285714Y-74394819D01*
X84571428Y-73728152D02*
X84571428Y-74394819D01*
X84333333Y-73347200D02*
X84095238Y-74061485D01*
X84095238Y-74061485D02*
X84714285Y-74061485D01*
X79394819Y-53333333D02*
X80109104Y-53333333D01*
X80109104Y-53333333D02*
X80251961Y-53380952D01*
X80251961Y-53380952D02*
X80347200Y-53476190D01*
X80347200Y-53476190D02*
X80394819Y-53619047D01*
X80394819Y-53619047D02*
X80394819Y-53714285D01*
X79394819Y-52380952D02*
X79394819Y-52857142D01*
X79394819Y-52857142D02*
X79871009Y-52904761D01*
X79871009Y-52904761D02*
X79823390Y-52857142D01*
X79823390Y-52857142D02*
X79775771Y-52761904D01*
X79775771Y-52761904D02*
X79775771Y-52523809D01*
X79775771Y-52523809D02*
X79823390Y-52428571D01*
X79823390Y-52428571D02*
X79871009Y-52380952D01*
X79871009Y-52380952D02*
X79966247Y-52333333D01*
X79966247Y-52333333D02*
X80204342Y-52333333D01*
X80204342Y-52333333D02*
X80299580Y-52380952D01*
X80299580Y-52380952D02*
X80347200Y-52428571D01*
X80347200Y-52428571D02*
X80394819Y-52523809D01*
X80394819Y-52523809D02*
X80394819Y-52761904D01*
X80394819Y-52761904D02*
X80347200Y-52857142D01*
X80347200Y-52857142D02*
X80299580Y-52904761D01*
X153107142Y-48434819D02*
X152773809Y-47958628D01*
X152535714Y-48434819D02*
X152535714Y-47434819D01*
X152535714Y-47434819D02*
X152916666Y-47434819D01*
X152916666Y-47434819D02*
X153011904Y-47482438D01*
X153011904Y-47482438D02*
X153059523Y-47530057D01*
X153059523Y-47530057D02*
X153107142Y-47625295D01*
X153107142Y-47625295D02*
X153107142Y-47768152D01*
X153107142Y-47768152D02*
X153059523Y-47863390D01*
X153059523Y-47863390D02*
X153011904Y-47911009D01*
X153011904Y-47911009D02*
X152916666Y-47958628D01*
X152916666Y-47958628D02*
X152535714Y-47958628D01*
X154059523Y-48434819D02*
X153488095Y-48434819D01*
X153773809Y-48434819D02*
X153773809Y-47434819D01*
X153773809Y-47434819D02*
X153678571Y-47577676D01*
X153678571Y-47577676D02*
X153583333Y-47672914D01*
X153583333Y-47672914D02*
X153488095Y-47720533D01*
X154630952Y-47863390D02*
X154535714Y-47815771D01*
X154535714Y-47815771D02*
X154488095Y-47768152D01*
X154488095Y-47768152D02*
X154440476Y-47672914D01*
X154440476Y-47672914D02*
X154440476Y-47625295D01*
X154440476Y-47625295D02*
X154488095Y-47530057D01*
X154488095Y-47530057D02*
X154535714Y-47482438D01*
X154535714Y-47482438D02*
X154630952Y-47434819D01*
X154630952Y-47434819D02*
X154821428Y-47434819D01*
X154821428Y-47434819D02*
X154916666Y-47482438D01*
X154916666Y-47482438D02*
X154964285Y-47530057D01*
X154964285Y-47530057D02*
X155011904Y-47625295D01*
X155011904Y-47625295D02*
X155011904Y-47672914D01*
X155011904Y-47672914D02*
X154964285Y-47768152D01*
X154964285Y-47768152D02*
X154916666Y-47815771D01*
X154916666Y-47815771D02*
X154821428Y-47863390D01*
X154821428Y-47863390D02*
X154630952Y-47863390D01*
X154630952Y-47863390D02*
X154535714Y-47911009D01*
X154535714Y-47911009D02*
X154488095Y-47958628D01*
X154488095Y-47958628D02*
X154440476Y-48053866D01*
X154440476Y-48053866D02*
X154440476Y-48244342D01*
X154440476Y-48244342D02*
X154488095Y-48339580D01*
X154488095Y-48339580D02*
X154535714Y-48387200D01*
X154535714Y-48387200D02*
X154630952Y-48434819D01*
X154630952Y-48434819D02*
X154821428Y-48434819D01*
X154821428Y-48434819D02*
X154916666Y-48387200D01*
X154916666Y-48387200D02*
X154964285Y-48339580D01*
X154964285Y-48339580D02*
X155011904Y-48244342D01*
X155011904Y-48244342D02*
X155011904Y-48053866D01*
X155011904Y-48053866D02*
X154964285Y-47958628D01*
X154964285Y-47958628D02*
X154916666Y-47911009D01*
X154916666Y-47911009D02*
X154821428Y-47863390D01*
X83533333Y-48634819D02*
X83200000Y-48158628D01*
X82961905Y-48634819D02*
X82961905Y-47634819D01*
X82961905Y-47634819D02*
X83342857Y-47634819D01*
X83342857Y-47634819D02*
X83438095Y-47682438D01*
X83438095Y-47682438D02*
X83485714Y-47730057D01*
X83485714Y-47730057D02*
X83533333Y-47825295D01*
X83533333Y-47825295D02*
X83533333Y-47968152D01*
X83533333Y-47968152D02*
X83485714Y-48063390D01*
X83485714Y-48063390D02*
X83438095Y-48111009D01*
X83438095Y-48111009D02*
X83342857Y-48158628D01*
X83342857Y-48158628D02*
X82961905Y-48158628D01*
X83866667Y-47634819D02*
X84485714Y-47634819D01*
X84485714Y-47634819D02*
X84152381Y-48015771D01*
X84152381Y-48015771D02*
X84295238Y-48015771D01*
X84295238Y-48015771D02*
X84390476Y-48063390D01*
X84390476Y-48063390D02*
X84438095Y-48111009D01*
X84438095Y-48111009D02*
X84485714Y-48206247D01*
X84485714Y-48206247D02*
X84485714Y-48444342D01*
X84485714Y-48444342D02*
X84438095Y-48539580D01*
X84438095Y-48539580D02*
X84390476Y-48587200D01*
X84390476Y-48587200D02*
X84295238Y-48634819D01*
X84295238Y-48634819D02*
X84009524Y-48634819D01*
X84009524Y-48634819D02*
X83914286Y-48587200D01*
X83914286Y-48587200D02*
X83866667Y-48539580D01*
X118666666Y-73394819D02*
X118666666Y-74109104D01*
X118666666Y-74109104D02*
X118619047Y-74251961D01*
X118619047Y-74251961D02*
X118523809Y-74347200D01*
X118523809Y-74347200D02*
X118380952Y-74394819D01*
X118380952Y-74394819D02*
X118285714Y-74394819D01*
X119047619Y-73394819D02*
X119666666Y-73394819D01*
X119666666Y-73394819D02*
X119333333Y-73775771D01*
X119333333Y-73775771D02*
X119476190Y-73775771D01*
X119476190Y-73775771D02*
X119571428Y-73823390D01*
X119571428Y-73823390D02*
X119619047Y-73871009D01*
X119619047Y-73871009D02*
X119666666Y-73966247D01*
X119666666Y-73966247D02*
X119666666Y-74204342D01*
X119666666Y-74204342D02*
X119619047Y-74299580D01*
X119619047Y-74299580D02*
X119571428Y-74347200D01*
X119571428Y-74347200D02*
X119476190Y-74394819D01*
X119476190Y-74394819D02*
X119190476Y-74394819D01*
X119190476Y-74394819D02*
X119095238Y-74347200D01*
X119095238Y-74347200D02*
X119047619Y-74299580D01*
X152166666Y-73394819D02*
X152166666Y-74109104D01*
X152166666Y-74109104D02*
X152119047Y-74251961D01*
X152119047Y-74251961D02*
X152023809Y-74347200D01*
X152023809Y-74347200D02*
X151880952Y-74394819D01*
X151880952Y-74394819D02*
X151785714Y-74394819D01*
X153071428Y-73394819D02*
X152880952Y-73394819D01*
X152880952Y-73394819D02*
X152785714Y-73442438D01*
X152785714Y-73442438D02*
X152738095Y-73490057D01*
X152738095Y-73490057D02*
X152642857Y-73632914D01*
X152642857Y-73632914D02*
X152595238Y-73823390D01*
X152595238Y-73823390D02*
X152595238Y-74204342D01*
X152595238Y-74204342D02*
X152642857Y-74299580D01*
X152642857Y-74299580D02*
X152690476Y-74347200D01*
X152690476Y-74347200D02*
X152785714Y-74394819D01*
X152785714Y-74394819D02*
X152976190Y-74394819D01*
X152976190Y-74394819D02*
X153071428Y-74347200D01*
X153071428Y-74347200D02*
X153119047Y-74299580D01*
X153119047Y-74299580D02*
X153166666Y-74204342D01*
X153166666Y-74204342D02*
X153166666Y-73966247D01*
X153166666Y-73966247D02*
X153119047Y-73871009D01*
X153119047Y-73871009D02*
X153071428Y-73823390D01*
X153071428Y-73823390D02*
X152976190Y-73775771D01*
X152976190Y-73775771D02*
X152785714Y-73775771D01*
X152785714Y-73775771D02*
X152690476Y-73823390D01*
X152690476Y-73823390D02*
X152642857Y-73871009D01*
X152642857Y-73871009D02*
X152595238Y-73966247D01*
X148894819Y-53333333D02*
X149609104Y-53333333D01*
X149609104Y-53333333D02*
X149751961Y-53380952D01*
X149751961Y-53380952D02*
X149847200Y-53476190D01*
X149847200Y-53476190D02*
X149894819Y-53619047D01*
X149894819Y-53619047D02*
X149894819Y-53714285D01*
X149894819Y-52333333D02*
X149894819Y-52904761D01*
X149894819Y-52619047D02*
X148894819Y-52619047D01*
X148894819Y-52619047D02*
X149037676Y-52714285D01*
X149037676Y-52714285D02*
X149132914Y-52809523D01*
X149132914Y-52809523D02*
X149180533Y-52904761D01*
D12*
%TO.C,C22*%
X169263748Y-28740000D02*
X170686252Y-28740000D01*
X169263748Y-31460000D02*
X170686252Y-31460000D01*
%TO.C,C24*%
X169263748Y-35140000D02*
X170686252Y-35140000D01*
X169263748Y-37860000D02*
X170686252Y-37860000D01*
%TO.C,R14*%
X118987258Y-41177500D02*
X118512742Y-41177500D01*
X118987258Y-42222500D02*
X118512742Y-42222500D01*
%TO.C,R11*%
X118937258Y-67377500D02*
X118462742Y-67377500D01*
X118937258Y-68422500D02*
X118462742Y-68422500D01*
%TO.C,C24*%
X35361252Y-75890000D02*
X33938748Y-75890000D01*
X35361252Y-78610000D02*
X33938748Y-78610000D01*
%TO.C,C18*%
X169263748Y-82340000D02*
X170686252Y-82340000D01*
X169263748Y-85060000D02*
X170686252Y-85060000D01*
%TO.C,C21*%
X169263748Y-25540000D02*
X170686252Y-25540000D01*
X169263748Y-28260000D02*
X170686252Y-28260000D01*
D13*
%TO.C,Q13*%
X120500000Y-42060000D02*
X120500000Y-45210000D01*
X120500000Y-45210000D02*
X120700000Y-45210000D01*
X130510000Y-45210000D02*
X130640000Y-45210000D01*
X130640000Y-45210000D02*
X130640000Y-42060000D01*
D14*
X121480000Y-46600000D02*
G75*
G02*
X121080000Y-46600000I-200000J0D01*
G01*
X121080000Y-46600000D02*
G75*
G02*
X121480000Y-46600000I200000J0D01*
G01*
D12*
%TO.C,R8*%
X118937258Y-65877500D02*
X118462742Y-65877500D01*
X118937258Y-66922500D02*
X118462742Y-66922500D01*
%TO.C,R4*%
X83687258Y-70727500D02*
X83212742Y-70727500D01*
X83687258Y-71772500D02*
X83212742Y-71772500D01*
%TO.C,R56*%
X153987258Y-42427500D02*
X153512742Y-42427500D01*
X153987258Y-43472500D02*
X153512742Y-43472500D01*
%TO.C,C8*%
X35361252Y-66290000D02*
X33938748Y-66290000D01*
X35361252Y-69010000D02*
X33938748Y-69010000D01*
%TO.C,J2*%
X115940000Y-50940000D02*
X116240000Y-50940000D01*
X115940000Y-55060000D02*
X115940000Y-50940000D01*
X115940000Y-55060000D02*
X116240000Y-55060000D01*
X116240000Y-56315000D02*
X116240000Y-55060000D01*
X117760000Y-50940000D02*
X118240000Y-50940000D01*
X117760000Y-55060000D02*
X118240000Y-55060000D01*
X119760000Y-50940000D02*
X120240000Y-50940000D01*
X119760000Y-55060000D02*
X120240000Y-55060000D01*
X121760000Y-50940000D02*
X122060000Y-50940000D01*
X121760000Y-55060000D02*
X122060000Y-55060000D01*
X122060000Y-55060000D02*
X122060000Y-50940000D01*
D13*
%TO.C,Q9*%
X106800000Y-42060000D02*
X106800000Y-45210000D01*
X106800000Y-45210000D02*
X107000000Y-45210000D01*
X116810000Y-45210000D02*
X116940000Y-45210000D01*
X116940000Y-45210000D02*
X116940000Y-42060000D01*
D14*
X107780000Y-46600000D02*
G75*
G02*
X107380000Y-46600000I-200000J0D01*
G01*
X107380000Y-46600000D02*
G75*
G02*
X107780000Y-46600000I200000J0D01*
G01*
D13*
%TO.C,Q5*%
X60950000Y-67060000D02*
X60950000Y-70210000D01*
X60950000Y-70210000D02*
X61150000Y-70210000D01*
X70960000Y-70210000D02*
X71090000Y-70210000D01*
X71090000Y-70210000D02*
X71090000Y-67060000D01*
D14*
X61930000Y-71600000D02*
G75*
G02*
X61530000Y-71600000I-200000J0D01*
G01*
X61530000Y-71600000D02*
G75*
G02*
X61930000Y-71600000I200000J0D01*
G01*
D12*
%TO.C,C7*%
X169263748Y-47940000D02*
X170686252Y-47940000D01*
X169263748Y-50660000D02*
X170686252Y-50660000D01*
%TO.C,R53*%
X83937258Y-41327500D02*
X83462742Y-41327500D01*
X83937258Y-42372500D02*
X83462742Y-42372500D01*
%TO.C,C6*%
X35361252Y-59890000D02*
X33938748Y-59890000D01*
X35361252Y-62610000D02*
X33938748Y-62610000D01*
%TO.C,C9*%
X169263748Y-41540000D02*
X170686252Y-41540000D01*
X169263748Y-44260000D02*
X170686252Y-44260000D01*
%TO.C,R7*%
X118987258Y-42627500D02*
X118512742Y-42627500D01*
X118987258Y-43672500D02*
X118512742Y-43672500D01*
%TO.C,C2*%
X169263748Y-69540000D02*
X170686252Y-69540000D01*
X169263748Y-72260000D02*
X170686252Y-72260000D01*
%TO.C,C4*%
X169263748Y-63140000D02*
X170686252Y-63140000D01*
X169263748Y-65860000D02*
X170686252Y-65860000D01*
%TO.C,C20*%
X169263748Y-22340000D02*
X170686252Y-22340000D01*
X169263748Y-25060000D02*
X170686252Y-25060000D01*
%TO.C,C5*%
X169263748Y-59940000D02*
X170686252Y-59940000D01*
X169263748Y-62660000D02*
X170686252Y-62660000D01*
D13*
%TO.C,Q18*%
X141600000Y-67060000D02*
X141600000Y-70210000D01*
X141600000Y-70210000D02*
X141800000Y-70210000D01*
X151610000Y-70210000D02*
X151740000Y-70210000D01*
X151740000Y-70210000D02*
X151740000Y-67060000D01*
D14*
X142580000Y-71600000D02*
G75*
G02*
X142180000Y-71600000I-200000J0D01*
G01*
X142180000Y-71600000D02*
G75*
G02*
X142580000Y-71600000I200000J0D01*
G01*
D13*
%TO.C,Q12*%
X106800000Y-67060000D02*
X106800000Y-70210000D01*
X106800000Y-70210000D02*
X107000000Y-70210000D01*
X116810000Y-70210000D02*
X116940000Y-70210000D01*
X116940000Y-70210000D02*
X116940000Y-67060000D01*
D14*
X107780000Y-71600000D02*
G75*
G02*
X107380000Y-71600000I-200000J0D01*
G01*
X107380000Y-71600000D02*
G75*
G02*
X107780000Y-71600000I200000J0D01*
G01*
D12*
%TO.C,C10*%
X169263748Y-38340000D02*
X170686252Y-38340000D01*
X169263748Y-41060000D02*
X170686252Y-41060000D01*
%TO.C,C9*%
X35361252Y-69490000D02*
X33938748Y-69490000D01*
X35361252Y-72210000D02*
X33938748Y-72210000D01*
%TO.C,R6*%
X118937258Y-70377500D02*
X118462742Y-70377500D01*
X118937258Y-71422500D02*
X118462742Y-71422500D01*
%TO.C,C8*%
X169263748Y-44740000D02*
X170686252Y-44740000D01*
X169263748Y-47460000D02*
X170686252Y-47460000D01*
%TO.C,C15*%
X35361252Y-35090000D02*
X33938748Y-35090000D01*
X35361252Y-37810000D02*
X33938748Y-37810000D01*
%TO.C,TH1*%
X120346359Y-47220000D02*
X120653641Y-47220000D01*
X120346359Y-47980000D02*
X120653641Y-47980000D01*
%TO.C,C1*%
X169263748Y-72740000D02*
X170686252Y-72740000D01*
X169263748Y-75460000D02*
X170686252Y-75460000D01*
%TO.C,C7*%
X35361252Y-63090000D02*
X33938748Y-63090000D01*
X35361252Y-65810000D02*
X33938748Y-65810000D01*
D13*
%TO.C,Q6*%
X50400000Y-67060000D02*
X50400000Y-70210000D01*
X50400000Y-70210000D02*
X50600000Y-70210000D01*
X60410000Y-70210000D02*
X60540000Y-70210000D01*
X60540000Y-70210000D02*
X60540000Y-67060000D01*
D14*
X51380000Y-71600000D02*
G75*
G02*
X50980000Y-71600000I-200000J0D01*
G01*
X50980000Y-71600000D02*
G75*
G02*
X51380000Y-71600000I200000J0D01*
G01*
D12*
%TO.C,C10*%
X35361252Y-72690000D02*
X33938748Y-72690000D01*
X35361252Y-75410000D02*
X33938748Y-75410000D01*
%TO.C,J4*%
X82940000Y-74940000D02*
X82940000Y-77315000D01*
X82940000Y-74940000D02*
X85060000Y-74940000D01*
X82940000Y-78685000D02*
X82940000Y-79060000D01*
X82940000Y-79060000D02*
X85060000Y-79060000D01*
X85060000Y-74940000D02*
X85060000Y-75315000D01*
X85060000Y-75315000D02*
X86290000Y-75315000D01*
X85060000Y-76685000D02*
X85060000Y-79060000D01*
%TO.C,C3*%
X35361252Y-44690000D02*
X33938748Y-44690000D01*
X35361252Y-47410000D02*
X33938748Y-47410000D01*
%TO.C,J5*%
X80940000Y-50940000D02*
X81240000Y-50940000D01*
X80940000Y-55060000D02*
X80940000Y-50940000D01*
X80940000Y-55060000D02*
X81240000Y-55060000D01*
X81240000Y-56315000D02*
X81240000Y-55060000D01*
X82760000Y-50940000D02*
X83240000Y-50940000D01*
X82760000Y-55060000D02*
X83240000Y-55060000D01*
X84760000Y-50940000D02*
X85240000Y-50940000D01*
X84760000Y-55060000D02*
X85240000Y-55060000D01*
X86760000Y-50940000D02*
X87060000Y-50940000D01*
X86760000Y-55060000D02*
X87060000Y-55060000D01*
X87060000Y-55060000D02*
X87060000Y-50940000D01*
D13*
%TO.C,Q11*%
X85700000Y-42060000D02*
X85700000Y-45210000D01*
X85700000Y-45210000D02*
X85900000Y-45210000D01*
X95710000Y-45210000D02*
X95840000Y-45210000D01*
X95840000Y-45210000D02*
X95840000Y-42060000D01*
D14*
X86680000Y-46600000D02*
G75*
G02*
X86280000Y-46600000I-200000J0D01*
G01*
X86280000Y-46600000D02*
G75*
G02*
X86680000Y-46600000I200000J0D01*
G01*
D12*
%TO.C,R49*%
X83937258Y-42827500D02*
X83462742Y-42827500D01*
X83937258Y-43872500D02*
X83462742Y-43872500D01*
D13*
%TO.C,Q4*%
X71500000Y-67060000D02*
X71500000Y-70210000D01*
X71500000Y-70210000D02*
X71700000Y-70210000D01*
X81510000Y-70210000D02*
X81640000Y-70210000D01*
X81640000Y-70210000D02*
X81640000Y-67060000D01*
D14*
X72480000Y-71600000D02*
G75*
G02*
X72080000Y-71600000I-200000J0D01*
G01*
X72080000Y-71600000D02*
G75*
G02*
X72480000Y-71600000I200000J0D01*
G01*
D13*
%TO.C,Q1*%
X71500000Y-42060000D02*
X71500000Y-45210000D01*
X71500000Y-45210000D02*
X71700000Y-45210000D01*
X81510000Y-45210000D02*
X81640000Y-45210000D01*
X81640000Y-45210000D02*
X81640000Y-42060000D01*
D14*
X72480000Y-46600000D02*
G75*
G02*
X72080000Y-46600000I-200000J0D01*
G01*
X72080000Y-46600000D02*
G75*
G02*
X72480000Y-46600000I200000J0D01*
G01*
D12*
%TO.C,C2*%
X35361252Y-41490000D02*
X33938748Y-41490000D01*
X35361252Y-44210000D02*
X33938748Y-44210000D01*
%TO.C,C16*%
X35361252Y-31890000D02*
X33938748Y-31890000D01*
X35361252Y-34610000D02*
X33938748Y-34610000D01*
%TO.C,R5*%
X118987258Y-45577500D02*
X118512742Y-45577500D01*
X118987258Y-46622500D02*
X118512742Y-46622500D01*
%TO.C,R15*%
X118937258Y-68877500D02*
X118462742Y-68877500D01*
X118937258Y-69922500D02*
X118462742Y-69922500D01*
%TO.C,C23*%
X35361252Y-79090000D02*
X33938748Y-79090000D01*
X35361252Y-81810000D02*
X33938748Y-81810000D01*
D13*
%TO.C,Q7*%
X96250000Y-42060000D02*
X96250000Y-45210000D01*
X96250000Y-45210000D02*
X96450000Y-45210000D01*
X106260000Y-45210000D02*
X106390000Y-45210000D01*
X106390000Y-45210000D02*
X106390000Y-42060000D01*
D14*
X97230000Y-46600000D02*
G75*
G02*
X96830000Y-46600000I-200000J0D01*
G01*
X96830000Y-46600000D02*
G75*
G02*
X97230000Y-46600000I200000J0D01*
G01*
D12*
%TO.C,C22*%
X35361252Y-82290000D02*
X33938748Y-82290000D01*
X35361252Y-85010000D02*
X33938748Y-85010000D01*
%TO.C,R18*%
X153987258Y-46027500D02*
X153512742Y-46027500D01*
X153987258Y-47072500D02*
X153512742Y-47072500D01*
%TO.C,C19*%
X35361252Y-22290000D02*
X33938748Y-22290000D01*
X35361252Y-25010000D02*
X33938748Y-25010000D01*
%TO.C,R1*%
X83937258Y-44327500D02*
X83462742Y-44327500D01*
X83937258Y-45372500D02*
X83462742Y-45372500D01*
%TO.C,C3*%
X169263748Y-66340000D02*
X170686252Y-66340000D01*
X169263748Y-69060000D02*
X170686252Y-69060000D01*
%TO.C,R3*%
X83937258Y-46227500D02*
X83462742Y-46227500D01*
X83937258Y-47272500D02*
X83462742Y-47272500D01*
%TO.C,C17*%
X35361252Y-25490000D02*
X33938748Y-25490000D01*
X35361252Y-28210000D02*
X33938748Y-28210000D01*
%TO.C,R50*%
X83687258Y-67827500D02*
X83212742Y-67827500D01*
X83687258Y-68872500D02*
X83212742Y-68872500D01*
%TO.C,R54*%
X83687258Y-66327500D02*
X83212742Y-66327500D01*
X83687258Y-67372500D02*
X83212742Y-67372500D01*
D13*
%TO.C,Q10*%
X96250000Y-67060000D02*
X96250000Y-70210000D01*
X96250000Y-70210000D02*
X96450000Y-70210000D01*
X106260000Y-70210000D02*
X106390000Y-70210000D01*
X106390000Y-70210000D02*
X106390000Y-67060000D01*
D14*
X97230000Y-71600000D02*
G75*
G02*
X96830000Y-71600000I-200000J0D01*
G01*
X96830000Y-71600000D02*
G75*
G02*
X97230000Y-71600000I200000J0D01*
G01*
D12*
%TO.C,R60*%
X153837258Y-69077500D02*
X153362742Y-69077500D01*
X153837258Y-70122500D02*
X153362742Y-70122500D01*
%TO.C,J3*%
X117940000Y-74940000D02*
X117940000Y-77315000D01*
X117940000Y-74940000D02*
X120060000Y-74940000D01*
X117940000Y-78685000D02*
X117940000Y-79060000D01*
X117940000Y-79060000D02*
X120060000Y-79060000D01*
X120060000Y-74940000D02*
X120060000Y-75315000D01*
X120060000Y-75315000D02*
X121290000Y-75315000D01*
X120060000Y-76685000D02*
X120060000Y-79060000D01*
%TO.C,R48*%
X153987258Y-40977500D02*
X153512742Y-40977500D01*
X153987258Y-42022500D02*
X153512742Y-42022500D01*
%TO.C,R51*%
X153837258Y-66077500D02*
X153362742Y-66077500D01*
X153837258Y-67122500D02*
X153362742Y-67122500D01*
D13*
%TO.C,Q15*%
X131050000Y-42060000D02*
X131050000Y-45210000D01*
X131050000Y-45210000D02*
X131250000Y-45210000D01*
X141060000Y-45210000D02*
X141190000Y-45210000D01*
X141190000Y-45210000D02*
X141190000Y-42060000D01*
D14*
X132030000Y-46600000D02*
G75*
G02*
X131630000Y-46600000I-200000J0D01*
G01*
X131630000Y-46600000D02*
G75*
G02*
X132030000Y-46600000I200000J0D01*
G01*
D12*
%TO.C,C23*%
X169263748Y-31940000D02*
X170686252Y-31940000D01*
X169263748Y-34660000D02*
X170686252Y-34660000D01*
D13*
%TO.C,Q16*%
X131050000Y-67060000D02*
X131050000Y-70210000D01*
X131050000Y-70210000D02*
X131250000Y-70210000D01*
X141060000Y-70210000D02*
X141190000Y-70210000D01*
X141190000Y-70210000D02*
X141190000Y-67060000D01*
D14*
X132030000Y-71600000D02*
G75*
G02*
X131630000Y-71600000I-200000J0D01*
G01*
X131630000Y-71600000D02*
G75*
G02*
X132030000Y-71600000I200000J0D01*
G01*
D13*
%TO.C,Q2*%
X60950000Y-42060000D02*
X60950000Y-45210000D01*
X60950000Y-45210000D02*
X61150000Y-45210000D01*
X70960000Y-45210000D02*
X71090000Y-45210000D01*
X71090000Y-45210000D02*
X71090000Y-42060000D01*
D14*
X61930000Y-46600000D02*
G75*
G02*
X61530000Y-46600000I-200000J0D01*
G01*
X61530000Y-46600000D02*
G75*
G02*
X61930000Y-46600000I200000J0D01*
G01*
D12*
%TO.C,R47*%
X153362742Y-71277500D02*
X153837258Y-71277500D01*
X153362742Y-72322500D02*
X153837258Y-72322500D01*
%TO.C,C4*%
X35361252Y-47890000D02*
X33938748Y-47890000D01*
X35361252Y-50610000D02*
X33938748Y-50610000D01*
%TO.C,R57*%
X153837258Y-67577500D02*
X153362742Y-67577500D01*
X153837258Y-68622500D02*
X153362742Y-68622500D01*
%TO.C,R10*%
X118987258Y-44077500D02*
X118512742Y-44077500D01*
X118987258Y-45122500D02*
X118512742Y-45122500D01*
D13*
%TO.C,Q17*%
X141600000Y-42060000D02*
X141600000Y-45210000D01*
X141600000Y-45210000D02*
X141800000Y-45210000D01*
X151610000Y-45210000D02*
X151740000Y-45210000D01*
X151740000Y-45210000D02*
X151740000Y-42060000D01*
D14*
X142580000Y-46600000D02*
G75*
G02*
X142180000Y-46600000I-200000J0D01*
G01*
X142180000Y-46600000D02*
G75*
G02*
X142580000Y-46600000I200000J0D01*
G01*
D13*
%TO.C,Q14*%
X120500000Y-67110000D02*
X120500000Y-70260000D01*
X120500000Y-70260000D02*
X120700000Y-70260000D01*
X130510000Y-70260000D02*
X130640000Y-70260000D01*
X130640000Y-70260000D02*
X130640000Y-67110000D01*
D14*
X121480000Y-71650000D02*
G75*
G02*
X121080000Y-71650000I-200000J0D01*
G01*
X121080000Y-71650000D02*
G75*
G02*
X121480000Y-71650000I200000J0D01*
G01*
D13*
%TO.C,Q8*%
X85700000Y-67060000D02*
X85700000Y-70210000D01*
X85700000Y-70210000D02*
X85900000Y-70210000D01*
X95710000Y-70210000D02*
X95840000Y-70210000D01*
X95840000Y-70210000D02*
X95840000Y-67060000D01*
D14*
X86680000Y-71600000D02*
G75*
G02*
X86280000Y-71600000I-200000J0D01*
G01*
X86280000Y-71600000D02*
G75*
G02*
X86680000Y-71600000I200000J0D01*
G01*
D12*
%TO.C,C6*%
X169263748Y-51140000D02*
X170686252Y-51140000D01*
X169263748Y-53860000D02*
X170686252Y-53860000D01*
D13*
%TO.C,Q3*%
X50400000Y-42060000D02*
X50400000Y-45210000D01*
X50400000Y-45210000D02*
X50600000Y-45210000D01*
X60410000Y-45210000D02*
X60540000Y-45210000D01*
X60540000Y-45210000D02*
X60540000Y-42060000D01*
D14*
X51380000Y-46600000D02*
G75*
G02*
X50980000Y-46600000I-200000J0D01*
G01*
X50980000Y-46600000D02*
G75*
G02*
X51380000Y-46600000I200000J0D01*
G01*
D12*
%TO.C,C5*%
X35361252Y-51090000D02*
X33938748Y-51090000D01*
X35361252Y-53810000D02*
X33938748Y-53810000D01*
%TO.C,J6*%
X151440000Y-74940000D02*
X151440000Y-77315000D01*
X151440000Y-74940000D02*
X153560000Y-74940000D01*
X151440000Y-78685000D02*
X151440000Y-79060000D01*
X151440000Y-79060000D02*
X153560000Y-79060000D01*
X153560000Y-74940000D02*
X153560000Y-75315000D01*
X153560000Y-75315000D02*
X154790000Y-75315000D01*
X153560000Y-76685000D02*
X153560000Y-79060000D01*
%TO.C,C18*%
X35361252Y-28690000D02*
X33938748Y-28690000D01*
X35361252Y-31410000D02*
X33938748Y-31410000D01*
%TO.C,R59*%
X153987258Y-43877500D02*
X153512742Y-43877500D01*
X153987258Y-44922500D02*
X153512742Y-44922500D01*
%TO.C,C16*%
X169263748Y-79140000D02*
X170686252Y-79140000D01*
X169263748Y-81860000D02*
X170686252Y-81860000D01*
%TO.C,R2*%
X83687258Y-69227500D02*
X83212742Y-69227500D01*
X83687258Y-70272500D02*
X83212742Y-70272500D01*
%TO.C,C15*%
X169263748Y-75940000D02*
X170686252Y-75940000D01*
X169263748Y-78660000D02*
X170686252Y-78660000D01*
%TO.C,J1*%
X150440000Y-50940000D02*
X150740000Y-50940000D01*
X150440000Y-55060000D02*
X150440000Y-50940000D01*
X150440000Y-55060000D02*
X150740000Y-55060000D01*
X150740000Y-56315000D02*
X150740000Y-55060000D01*
X152260000Y-50940000D02*
X152740000Y-50940000D01*
X152260000Y-55060000D02*
X152740000Y-55060000D01*
X154260000Y-50940000D02*
X154560000Y-50940000D01*
X154260000Y-55060000D02*
X154560000Y-55060000D01*
X154560000Y-55060000D02*
X154560000Y-50940000D01*
%TO.C,C1*%
X35361252Y-38290000D02*
X33938748Y-38290000D01*
X35361252Y-41010000D02*
X33938748Y-41010000D01*
%TD*%
M02*
