%TF.GenerationSoftware,KiCad,Pcbnew,8.0.8*%
%TF.CreationDate,2025-02-13T11:47:35+09:00*%
%TF.ProjectId,GESC,47455343-2e6b-4696-9361-645f70636258,rev?*%
%TF.SameCoordinates,Original*%
%TF.FileFunction,Copper,L1,Top*%
%TF.FilePolarity,Positive*%
%FSLAX46Y46*%
G04 Gerber Fmt 4.6, Leading zero omitted, Abs format (unit mm)*
G04 Created by KiCad (PCBNEW 8.0.8) date 2025-02-13 11:47:35*
%MOMM*%
%LPD*%
G01*
G04 APERTURE LIST*
G04 Aperture macros list*
%AMRoundRect*
0 Rectangle with rounded corners*
0 $1 Rounding radius*
0 $2 $3 $4 $5 $6 $7 $8 $9 X,Y pos of 4 corners*
0 Add a 4 corners polygon primitive as box body*
4,1,4,$2,$3,$4,$5,$6,$7,$8,$9,$2,$3,0*
0 Add four circle primitives for the rounded corners*
1,1,$1+$1,$2,$3*
1,1,$1+$1,$4,$5*
1,1,$1+$1,$6,$7*
1,1,$1+$1,$8,$9*
0 Add four rect primitives between the rounded corners*
20,1,$1+$1,$2,$3,$4,$5,0*
20,1,$1+$1,$4,$5,$6,$7,0*
20,1,$1+$1,$6,$7,$8,$9,0*
20,1,$1+$1,$8,$9,$2,$3,0*%
G04 Aperture macros list end*
%ADD10C,0.300000*%
%TA.AperFunction,NonConductor*%
%ADD11C,0.300000*%
%TD*%
%TA.AperFunction,NonConductor*%
%ADD12C,0.200000*%
%TD*%
%TA.AperFunction,SMDPad,CuDef*%
%ADD13RoundRect,0.250000X-0.325000X-1.100000X0.325000X-1.100000X0.325000X1.100000X-0.325000X1.100000X0*%
%TD*%
%TA.AperFunction,SMDPad,CuDef*%
%ADD14RoundRect,0.200000X0.200000X0.275000X-0.200000X0.275000X-0.200000X-0.275000X0.200000X-0.275000X0*%
%TD*%
%TA.AperFunction,SMDPad,CuDef*%
%ADD15RoundRect,0.250000X0.325000X1.100000X-0.325000X1.100000X-0.325000X-1.100000X0.325000X-1.100000X0*%
%TD*%
%TA.AperFunction,SMDPad,CuDef*%
%ADD16R,0.900000X2.200000*%
%TD*%
%TA.AperFunction,SMDPad,CuDef*%
%ADD17R,0.800000X2.200000*%
%TD*%
%TA.AperFunction,SMDPad,CuDef*%
%ADD18R,8.080000X0.800000*%
%TD*%
%TA.AperFunction,SMDPad,CuDef*%
%ADD19R,10.000000X8.500000*%
%TD*%
%TA.AperFunction,SMDPad,CuDef*%
%ADD20R,5.200000X3.500000*%
%TD*%
%TA.AperFunction,SMDPad,CuDef*%
%ADD21R,1.000000X2.580000*%
%TD*%
%TA.AperFunction,SMDPad,CuDef*%
%ADD22RoundRect,0.250000X-1.950000X-1.000000X1.950000X-1.000000X1.950000X1.000000X-1.950000X1.000000X0*%
%TD*%
%TA.AperFunction,SMDPad,CuDef*%
%ADD23RoundRect,0.135000X-0.135000X-0.185000X0.135000X-0.185000X0.135000X0.185000X-0.135000X0.185000X0*%
%TD*%
%TA.AperFunction,SMDPad,CuDef*%
%ADD24R,2.350000X0.850000*%
%TD*%
%TA.AperFunction,SMDPad,CuDef*%
%ADD25RoundRect,0.200000X-0.200000X-0.275000X0.200000X-0.275000X0.200000X0.275000X-0.200000X0.275000X0*%
%TD*%
%TA.AperFunction,Conductor*%
%ADD26C,0.200000*%
%TD*%
%TA.AperFunction,Conductor*%
%ADD27C,0.400000*%
%TD*%
%TA.AperFunction,Conductor*%
%ADD28C,1.000000*%
%TD*%
G04 APERTURE END LIST*
D10*
D11*
X95464287Y-107278328D02*
X94607144Y-107278328D01*
X95035715Y-107278328D02*
X95035715Y-105778328D01*
X95035715Y-105778328D02*
X94892858Y-105992614D01*
X94892858Y-105992614D02*
X94750001Y-106135471D01*
X94750001Y-106135471D02*
X94607144Y-106206900D01*
X96750001Y-106278328D02*
X96750001Y-107278328D01*
X96392858Y-105706900D02*
X96035715Y-106778328D01*
X96035715Y-106778328D02*
X96964286Y-106778328D01*
X97821429Y-105778328D02*
X97964286Y-105778328D01*
X97964286Y-105778328D02*
X98107143Y-105849757D01*
X98107143Y-105849757D02*
X98178572Y-105921185D01*
X98178572Y-105921185D02*
X98250000Y-106064042D01*
X98250000Y-106064042D02*
X98321429Y-106349757D01*
X98321429Y-106349757D02*
X98321429Y-106706900D01*
X98321429Y-106706900D02*
X98250000Y-106992614D01*
X98250000Y-106992614D02*
X98178572Y-107135471D01*
X98178572Y-107135471D02*
X98107143Y-107206900D01*
X98107143Y-107206900D02*
X97964286Y-107278328D01*
X97964286Y-107278328D02*
X97821429Y-107278328D01*
X97821429Y-107278328D02*
X97678572Y-107206900D01*
X97678572Y-107206900D02*
X97607143Y-107135471D01*
X97607143Y-107135471D02*
X97535714Y-106992614D01*
X97535714Y-106992614D02*
X97464286Y-106706900D01*
X97464286Y-106706900D02*
X97464286Y-106349757D01*
X97464286Y-106349757D02*
X97535714Y-106064042D01*
X97535714Y-106064042D02*
X97607143Y-105921185D01*
X97607143Y-105921185D02*
X97678572Y-105849757D01*
X97678572Y-105849757D02*
X97821429Y-105778328D01*
X98964285Y-107135471D02*
X99035714Y-107206900D01*
X99035714Y-107206900D02*
X98964285Y-107278328D01*
X98964285Y-107278328D02*
X98892857Y-107206900D01*
X98892857Y-107206900D02*
X98964285Y-107135471D01*
X98964285Y-107135471D02*
X98964285Y-107278328D01*
X100392857Y-105778328D02*
X99678571Y-105778328D01*
X99678571Y-105778328D02*
X99607143Y-106492614D01*
X99607143Y-106492614D02*
X99678571Y-106421185D01*
X99678571Y-106421185D02*
X99821429Y-106349757D01*
X99821429Y-106349757D02*
X100178571Y-106349757D01*
X100178571Y-106349757D02*
X100321429Y-106421185D01*
X100321429Y-106421185D02*
X100392857Y-106492614D01*
X100392857Y-106492614D02*
X100464286Y-106635471D01*
X100464286Y-106635471D02*
X100464286Y-106992614D01*
X100464286Y-106992614D02*
X100392857Y-107135471D01*
X100392857Y-107135471D02*
X100321429Y-107206900D01*
X100321429Y-107206900D02*
X100178571Y-107278328D01*
X100178571Y-107278328D02*
X99821429Y-107278328D01*
X99821429Y-107278328D02*
X99678571Y-107206900D01*
X99678571Y-107206900D02*
X99607143Y-107135471D01*
X101392857Y-105778328D02*
X101535714Y-105778328D01*
X101535714Y-105778328D02*
X101678571Y-105849757D01*
X101678571Y-105849757D02*
X101750000Y-105921185D01*
X101750000Y-105921185D02*
X101821428Y-106064042D01*
X101821428Y-106064042D02*
X101892857Y-106349757D01*
X101892857Y-106349757D02*
X101892857Y-106706900D01*
X101892857Y-106706900D02*
X101821428Y-106992614D01*
X101821428Y-106992614D02*
X101750000Y-107135471D01*
X101750000Y-107135471D02*
X101678571Y-107206900D01*
X101678571Y-107206900D02*
X101535714Y-107278328D01*
X101535714Y-107278328D02*
X101392857Y-107278328D01*
X101392857Y-107278328D02*
X101250000Y-107206900D01*
X101250000Y-107206900D02*
X101178571Y-107135471D01*
X101178571Y-107135471D02*
X101107142Y-106992614D01*
X101107142Y-106992614D02*
X101035714Y-106706900D01*
X101035714Y-106706900D02*
X101035714Y-106349757D01*
X101035714Y-106349757D02*
X101107142Y-106064042D01*
X101107142Y-106064042D02*
X101178571Y-105921185D01*
X101178571Y-105921185D02*
X101250000Y-105849757D01*
X101250000Y-105849757D02*
X101392857Y-105778328D01*
X102821428Y-105778328D02*
X102964285Y-105778328D01*
X102964285Y-105778328D02*
X103107142Y-105849757D01*
X103107142Y-105849757D02*
X103178571Y-105921185D01*
X103178571Y-105921185D02*
X103249999Y-106064042D01*
X103249999Y-106064042D02*
X103321428Y-106349757D01*
X103321428Y-106349757D02*
X103321428Y-106706900D01*
X103321428Y-106706900D02*
X103249999Y-106992614D01*
X103249999Y-106992614D02*
X103178571Y-107135471D01*
X103178571Y-107135471D02*
X103107142Y-107206900D01*
X103107142Y-107206900D02*
X102964285Y-107278328D01*
X102964285Y-107278328D02*
X102821428Y-107278328D01*
X102821428Y-107278328D02*
X102678571Y-107206900D01*
X102678571Y-107206900D02*
X102607142Y-107135471D01*
X102607142Y-107135471D02*
X102535713Y-106992614D01*
X102535713Y-106992614D02*
X102464285Y-106706900D01*
X102464285Y-106706900D02*
X102464285Y-106349757D01*
X102464285Y-106349757D02*
X102535713Y-106064042D01*
X102535713Y-106064042D02*
X102607142Y-105921185D01*
X102607142Y-105921185D02*
X102678571Y-105849757D01*
X102678571Y-105849757D02*
X102821428Y-105778328D01*
X104249999Y-105778328D02*
X104392856Y-105778328D01*
X104392856Y-105778328D02*
X104535713Y-105849757D01*
X104535713Y-105849757D02*
X104607142Y-105921185D01*
X104607142Y-105921185D02*
X104678570Y-106064042D01*
X104678570Y-106064042D02*
X104749999Y-106349757D01*
X104749999Y-106349757D02*
X104749999Y-106706900D01*
X104749999Y-106706900D02*
X104678570Y-106992614D01*
X104678570Y-106992614D02*
X104607142Y-107135471D01*
X104607142Y-107135471D02*
X104535713Y-107206900D01*
X104535713Y-107206900D02*
X104392856Y-107278328D01*
X104392856Y-107278328D02*
X104249999Y-107278328D01*
X104249999Y-107278328D02*
X104107142Y-107206900D01*
X104107142Y-107206900D02*
X104035713Y-107135471D01*
X104035713Y-107135471D02*
X103964284Y-106992614D01*
X103964284Y-106992614D02*
X103892856Y-106706900D01*
X103892856Y-106706900D02*
X103892856Y-106349757D01*
X103892856Y-106349757D02*
X103964284Y-106064042D01*
X103964284Y-106064042D02*
X104035713Y-105921185D01*
X104035713Y-105921185D02*
X104107142Y-105849757D01*
X104107142Y-105849757D02*
X104249999Y-105778328D01*
X106535712Y-107278328D02*
X106535712Y-106278328D01*
X106535712Y-106421185D02*
X106607141Y-106349757D01*
X106607141Y-106349757D02*
X106749998Y-106278328D01*
X106749998Y-106278328D02*
X106964284Y-106278328D01*
X106964284Y-106278328D02*
X107107141Y-106349757D01*
X107107141Y-106349757D02*
X107178570Y-106492614D01*
X107178570Y-106492614D02*
X107178570Y-107278328D01*
X107178570Y-106492614D02*
X107249998Y-106349757D01*
X107249998Y-106349757D02*
X107392855Y-106278328D01*
X107392855Y-106278328D02*
X107607141Y-106278328D01*
X107607141Y-106278328D02*
X107749998Y-106349757D01*
X107749998Y-106349757D02*
X107821427Y-106492614D01*
X107821427Y-106492614D02*
X107821427Y-107278328D01*
X108535712Y-107278328D02*
X108535712Y-106278328D01*
X108535712Y-106421185D02*
X108607141Y-106349757D01*
X108607141Y-106349757D02*
X108749998Y-106278328D01*
X108749998Y-106278328D02*
X108964284Y-106278328D01*
X108964284Y-106278328D02*
X109107141Y-106349757D01*
X109107141Y-106349757D02*
X109178570Y-106492614D01*
X109178570Y-106492614D02*
X109178570Y-107278328D01*
X109178570Y-106492614D02*
X109249998Y-106349757D01*
X109249998Y-106349757D02*
X109392855Y-106278328D01*
X109392855Y-106278328D02*
X109607141Y-106278328D01*
X109607141Y-106278328D02*
X109749998Y-106349757D01*
X109749998Y-106349757D02*
X109821427Y-106492614D01*
X109821427Y-106492614D02*
X109821427Y-107278328D01*
D12*
X172500000Y-102500000D02*
X172500000Y-108986420D01*
X32000000Y-102500000D02*
X32000000Y-108986420D01*
X172500000Y-108400000D02*
X32000000Y-108400000D01*
X172500000Y-108400000D02*
X32000000Y-108400000D01*
X172500000Y-108400000D02*
X171373496Y-108986421D01*
X172500000Y-108400000D02*
X171373496Y-107813579D01*
X32000000Y-108400000D02*
X33126504Y-107813579D01*
X32000000Y-108400000D02*
X33126504Y-108986421D01*
D10*
D11*
X179278328Y-63785712D02*
X179278328Y-63499998D01*
X179278328Y-63499998D02*
X179206900Y-63357141D01*
X179206900Y-63357141D02*
X179135471Y-63285712D01*
X179135471Y-63285712D02*
X178921185Y-63142855D01*
X178921185Y-63142855D02*
X178635471Y-63071426D01*
X178635471Y-63071426D02*
X178064042Y-63071426D01*
X178064042Y-63071426D02*
X177921185Y-63142855D01*
X177921185Y-63142855D02*
X177849757Y-63214284D01*
X177849757Y-63214284D02*
X177778328Y-63357141D01*
X177778328Y-63357141D02*
X177778328Y-63642855D01*
X177778328Y-63642855D02*
X177849757Y-63785712D01*
X177849757Y-63785712D02*
X177921185Y-63857141D01*
X177921185Y-63857141D02*
X178064042Y-63928569D01*
X178064042Y-63928569D02*
X178421185Y-63928569D01*
X178421185Y-63928569D02*
X178564042Y-63857141D01*
X178564042Y-63857141D02*
X178635471Y-63785712D01*
X178635471Y-63785712D02*
X178706900Y-63642855D01*
X178706900Y-63642855D02*
X178706900Y-63357141D01*
X178706900Y-63357141D02*
X178635471Y-63214284D01*
X178635471Y-63214284D02*
X178564042Y-63142855D01*
X178564042Y-63142855D02*
X178421185Y-63071426D01*
X177778328Y-62142855D02*
X177778328Y-61999998D01*
X177778328Y-61999998D02*
X177849757Y-61857141D01*
X177849757Y-61857141D02*
X177921185Y-61785713D01*
X177921185Y-61785713D02*
X178064042Y-61714284D01*
X178064042Y-61714284D02*
X178349757Y-61642855D01*
X178349757Y-61642855D02*
X178706900Y-61642855D01*
X178706900Y-61642855D02*
X178992614Y-61714284D01*
X178992614Y-61714284D02*
X179135471Y-61785713D01*
X179135471Y-61785713D02*
X179206900Y-61857141D01*
X179206900Y-61857141D02*
X179278328Y-61999998D01*
X179278328Y-61999998D02*
X179278328Y-62142855D01*
X179278328Y-62142855D02*
X179206900Y-62285713D01*
X179206900Y-62285713D02*
X179135471Y-62357141D01*
X179135471Y-62357141D02*
X178992614Y-62428570D01*
X178992614Y-62428570D02*
X178706900Y-62499998D01*
X178706900Y-62499998D02*
X178349757Y-62499998D01*
X178349757Y-62499998D02*
X178064042Y-62428570D01*
X178064042Y-62428570D02*
X177921185Y-62357141D01*
X177921185Y-62357141D02*
X177849757Y-62285713D01*
X177849757Y-62285713D02*
X177778328Y-62142855D01*
X179135471Y-60999999D02*
X179206900Y-60928570D01*
X179206900Y-60928570D02*
X179278328Y-60999999D01*
X179278328Y-60999999D02*
X179206900Y-61071427D01*
X179206900Y-61071427D02*
X179135471Y-60999999D01*
X179135471Y-60999999D02*
X179278328Y-60999999D01*
X177778328Y-59999998D02*
X177778328Y-59857141D01*
X177778328Y-59857141D02*
X177849757Y-59714284D01*
X177849757Y-59714284D02*
X177921185Y-59642856D01*
X177921185Y-59642856D02*
X178064042Y-59571427D01*
X178064042Y-59571427D02*
X178349757Y-59499998D01*
X178349757Y-59499998D02*
X178706900Y-59499998D01*
X178706900Y-59499998D02*
X178992614Y-59571427D01*
X178992614Y-59571427D02*
X179135471Y-59642856D01*
X179135471Y-59642856D02*
X179206900Y-59714284D01*
X179206900Y-59714284D02*
X179278328Y-59857141D01*
X179278328Y-59857141D02*
X179278328Y-59999998D01*
X179278328Y-59999998D02*
X179206900Y-60142856D01*
X179206900Y-60142856D02*
X179135471Y-60214284D01*
X179135471Y-60214284D02*
X178992614Y-60285713D01*
X178992614Y-60285713D02*
X178706900Y-60357141D01*
X178706900Y-60357141D02*
X178349757Y-60357141D01*
X178349757Y-60357141D02*
X178064042Y-60285713D01*
X178064042Y-60285713D02*
X177921185Y-60214284D01*
X177921185Y-60214284D02*
X177849757Y-60142856D01*
X177849757Y-60142856D02*
X177778328Y-59999998D01*
X177778328Y-58571427D02*
X177778328Y-58428570D01*
X177778328Y-58428570D02*
X177849757Y-58285713D01*
X177849757Y-58285713D02*
X177921185Y-58214285D01*
X177921185Y-58214285D02*
X178064042Y-58142856D01*
X178064042Y-58142856D02*
X178349757Y-58071427D01*
X178349757Y-58071427D02*
X178706900Y-58071427D01*
X178706900Y-58071427D02*
X178992614Y-58142856D01*
X178992614Y-58142856D02*
X179135471Y-58214285D01*
X179135471Y-58214285D02*
X179206900Y-58285713D01*
X179206900Y-58285713D02*
X179278328Y-58428570D01*
X179278328Y-58428570D02*
X179278328Y-58571427D01*
X179278328Y-58571427D02*
X179206900Y-58714285D01*
X179206900Y-58714285D02*
X179135471Y-58785713D01*
X179135471Y-58785713D02*
X178992614Y-58857142D01*
X178992614Y-58857142D02*
X178706900Y-58928570D01*
X178706900Y-58928570D02*
X178349757Y-58928570D01*
X178349757Y-58928570D02*
X178064042Y-58857142D01*
X178064042Y-58857142D02*
X177921185Y-58785713D01*
X177921185Y-58785713D02*
X177849757Y-58714285D01*
X177849757Y-58714285D02*
X177778328Y-58571427D01*
X177778328Y-57142856D02*
X177778328Y-56999999D01*
X177778328Y-56999999D02*
X177849757Y-56857142D01*
X177849757Y-56857142D02*
X177921185Y-56785714D01*
X177921185Y-56785714D02*
X178064042Y-56714285D01*
X178064042Y-56714285D02*
X178349757Y-56642856D01*
X178349757Y-56642856D02*
X178706900Y-56642856D01*
X178706900Y-56642856D02*
X178992614Y-56714285D01*
X178992614Y-56714285D02*
X179135471Y-56785714D01*
X179135471Y-56785714D02*
X179206900Y-56857142D01*
X179206900Y-56857142D02*
X179278328Y-56999999D01*
X179278328Y-56999999D02*
X179278328Y-57142856D01*
X179278328Y-57142856D02*
X179206900Y-57285714D01*
X179206900Y-57285714D02*
X179135471Y-57357142D01*
X179135471Y-57357142D02*
X178992614Y-57428571D01*
X178992614Y-57428571D02*
X178706900Y-57499999D01*
X178706900Y-57499999D02*
X178349757Y-57499999D01*
X178349757Y-57499999D02*
X178064042Y-57428571D01*
X178064042Y-57428571D02*
X177921185Y-57357142D01*
X177921185Y-57357142D02*
X177849757Y-57285714D01*
X177849757Y-57285714D02*
X177778328Y-57142856D01*
X177778328Y-55714285D02*
X177778328Y-55571428D01*
X177778328Y-55571428D02*
X177849757Y-55428571D01*
X177849757Y-55428571D02*
X177921185Y-55357143D01*
X177921185Y-55357143D02*
X178064042Y-55285714D01*
X178064042Y-55285714D02*
X178349757Y-55214285D01*
X178349757Y-55214285D02*
X178706900Y-55214285D01*
X178706900Y-55214285D02*
X178992614Y-55285714D01*
X178992614Y-55285714D02*
X179135471Y-55357143D01*
X179135471Y-55357143D02*
X179206900Y-55428571D01*
X179206900Y-55428571D02*
X179278328Y-55571428D01*
X179278328Y-55571428D02*
X179278328Y-55714285D01*
X179278328Y-55714285D02*
X179206900Y-55857143D01*
X179206900Y-55857143D02*
X179135471Y-55928571D01*
X179135471Y-55928571D02*
X178992614Y-56000000D01*
X178992614Y-56000000D02*
X178706900Y-56071428D01*
X178706900Y-56071428D02*
X178349757Y-56071428D01*
X178349757Y-56071428D02*
X178064042Y-56000000D01*
X178064042Y-56000000D02*
X177921185Y-55928571D01*
X177921185Y-55928571D02*
X177849757Y-55857143D01*
X177849757Y-55857143D02*
X177778328Y-55714285D01*
X179278328Y-53428572D02*
X178278328Y-53428572D01*
X178421185Y-53428572D02*
X178349757Y-53357143D01*
X178349757Y-53357143D02*
X178278328Y-53214286D01*
X178278328Y-53214286D02*
X178278328Y-53000000D01*
X178278328Y-53000000D02*
X178349757Y-52857143D01*
X178349757Y-52857143D02*
X178492614Y-52785715D01*
X178492614Y-52785715D02*
X179278328Y-52785715D01*
X178492614Y-52785715D02*
X178349757Y-52714286D01*
X178349757Y-52714286D02*
X178278328Y-52571429D01*
X178278328Y-52571429D02*
X178278328Y-52357143D01*
X178278328Y-52357143D02*
X178349757Y-52214286D01*
X178349757Y-52214286D02*
X178492614Y-52142857D01*
X178492614Y-52142857D02*
X179278328Y-52142857D01*
X179278328Y-51428572D02*
X178278328Y-51428572D01*
X178421185Y-51428572D02*
X178349757Y-51357143D01*
X178349757Y-51357143D02*
X178278328Y-51214286D01*
X178278328Y-51214286D02*
X178278328Y-51000000D01*
X178278328Y-51000000D02*
X178349757Y-50857143D01*
X178349757Y-50857143D02*
X178492614Y-50785715D01*
X178492614Y-50785715D02*
X179278328Y-50785715D01*
X178492614Y-50785715D02*
X178349757Y-50714286D01*
X178349757Y-50714286D02*
X178278328Y-50571429D01*
X178278328Y-50571429D02*
X178278328Y-50357143D01*
X178278328Y-50357143D02*
X178349757Y-50214286D01*
X178349757Y-50214286D02*
X178492614Y-50142857D01*
X178492614Y-50142857D02*
X179278328Y-50142857D01*
D12*
X173000000Y-102000000D02*
X180986420Y-102000000D01*
X173000000Y-12000000D02*
X180986420Y-12000000D01*
X180400000Y-102000000D02*
X180400000Y-12000000D01*
X180400000Y-102000000D02*
X180400000Y-12000000D01*
X180400000Y-102000000D02*
X179813579Y-100873496D01*
X180400000Y-102000000D02*
X180986421Y-100873496D01*
X180400000Y-12000000D02*
X180986421Y-13126504D01*
X180400000Y-12000000D02*
X179813579Y-13126504D01*
D13*
%TO.P,C22,1*%
%TO.N,+BATT*%
X168500000Y-30100000D03*
%TO.P,C22,2*%
%TO.N,GND*%
X171450000Y-30100000D03*
%TD*%
%TO.P,C24,1*%
%TO.N,+BATT*%
X168500000Y-36500000D03*
%TO.P,C24,2*%
%TO.N,GND*%
X171450000Y-36500000D03*
%TD*%
D14*
%TO.P,R14,1*%
%TO.N,Net-(J2-Pin_2)*%
X119575000Y-41700000D03*
%TO.P,R14,2*%
%TO.N,Net-(Q11-G)*%
X117925000Y-41700000D03*
%TD*%
%TO.P,R11,1*%
%TO.N,Net-(J2-Pin_3)*%
X119525000Y-67900000D03*
%TO.P,R11,2*%
%TO.N,Net-(Q10-G)*%
X117875000Y-67900000D03*
%TD*%
D15*
%TO.P,C24,1*%
%TO.N,+BATT*%
X36125000Y-77250000D03*
%TO.P,C24,2*%
%TO.N,GND*%
X33175000Y-77250000D03*
%TD*%
D13*
%TO.P,C18,1*%
%TO.N,+BATT*%
X168500000Y-83700000D03*
%TO.P,C18,2*%
%TO.N,GND*%
X171450000Y-83700000D03*
%TD*%
%TO.P,C21,1*%
%TO.N,+BATT*%
X168500000Y-26900000D03*
%TO.P,C21,2*%
%TO.N,GND*%
X171450000Y-26900000D03*
%TD*%
D16*
%TO.P,Q13,1,G*%
%TO.N,Net-(Q13-G)*%
X121380000Y-44950000D03*
D17*
%TO.P,Q13,2,S*%
%TO.N,Phase_C*%
X122600000Y-44950000D03*
%TO.P,Q13,3,S*%
X123800000Y-44950000D03*
%TO.P,Q13,4,S*%
X125000000Y-44950000D03*
%TO.P,Q13,5,S*%
X126200000Y-44950000D03*
%TO.P,Q13,6,S*%
X127400000Y-44950000D03*
%TO.P,Q13,7,S*%
X128600000Y-44950000D03*
D18*
%TO.P,Q13,8,S*%
X126240000Y-44250000D03*
D16*
X129820000Y-44950000D03*
D19*
%TO.P,Q13,9,D*%
%TO.N,+BATT*%
X125600000Y-37650000D03*
%TD*%
D20*
%TO.P,R9,1,1*%
%TO.N,Net-(J3-Pin_1)*%
X112500000Y-73390000D03*
%TO.P,R9,2,2*%
%TO.N,GND*%
X112500000Y-81010000D03*
%TD*%
D14*
%TO.P,R8,1*%
%TO.N,Net-(J2-Pin_3)*%
X119525000Y-66400000D03*
%TO.P,R8,2*%
%TO.N,Net-(Q8-G)*%
X117875000Y-66400000D03*
%TD*%
%TO.P,R4,1*%
%TO.N,Net-(J5-Pin_3)*%
X84275000Y-71250000D03*
%TO.P,R4,2*%
%TO.N,GND*%
X82625000Y-71250000D03*
%TD*%
%TO.P,R56,1*%
%TO.N,Net-(J1-Pin_4)*%
X154575000Y-42950000D03*
%TO.P,R56,2*%
%TO.N,Net-(Q15-G)*%
X152925000Y-42950000D03*
%TD*%
D15*
%TO.P,C8,1*%
%TO.N,+BATT*%
X36125000Y-67650000D03*
%TO.P,C8,2*%
%TO.N,GND*%
X33175000Y-67650000D03*
%TD*%
D21*
%TO.P,J2,1,Pin_1*%
%TO.N,GND*%
X117000000Y-55085000D03*
%TO.P,J2,2,Pin_2*%
%TO.N,Net-(J2-Pin_2)*%
X117000000Y-50915000D03*
%TO.P,J2,3,Pin_3*%
%TO.N,Net-(J2-Pin_3)*%
X119000000Y-55085000D03*
%TO.P,J2,4,Pin_4*%
%TO.N,Phase_B*%
X119000000Y-50915000D03*
%TO.P,J2,5,Pin_5*%
%TO.N,GND*%
X121000000Y-55085000D03*
%TO.P,J2,6,Pin_6*%
%TO.N,Net-(J2-Pin_6)*%
X121000000Y-50915000D03*
%TD*%
D16*
%TO.P,Q9,1,G*%
%TO.N,Net-(Q9-G)*%
X107680000Y-44950000D03*
D17*
%TO.P,Q9,2,S*%
%TO.N,Phase_B*%
X108900000Y-44950000D03*
%TO.P,Q9,3,S*%
X110100000Y-44950000D03*
%TO.P,Q9,4,S*%
X111300000Y-44950000D03*
%TO.P,Q9,5,S*%
X112500000Y-44950000D03*
%TO.P,Q9,6,S*%
X113700000Y-44950000D03*
%TO.P,Q9,7,S*%
X114900000Y-44950000D03*
D18*
%TO.P,Q9,8,S*%
X112540000Y-44250000D03*
D16*
X116120000Y-44950000D03*
D19*
%TO.P,Q9,9,D*%
%TO.N,+BATT*%
X111900000Y-37650000D03*
%TD*%
D16*
%TO.P,Q5,1,G*%
%TO.N,Net-(Q5-G)*%
X61830000Y-69950000D03*
D17*
%TO.P,Q5,2,S*%
%TO.N,Net-(J4-Pin_1)*%
X63050000Y-69950000D03*
%TO.P,Q5,3,S*%
X64250000Y-69950000D03*
%TO.P,Q5,4,S*%
X65450000Y-69950000D03*
%TO.P,Q5,5,S*%
X66650000Y-69950000D03*
%TO.P,Q5,6,S*%
X67850000Y-69950000D03*
%TO.P,Q5,7,S*%
X69050000Y-69950000D03*
D18*
%TO.P,Q5,8,S*%
X66690000Y-69250000D03*
D16*
X70270000Y-69950000D03*
D19*
%TO.P,Q5,9,D*%
%TO.N,Phase_A*%
X66050000Y-62650000D03*
%TD*%
D13*
%TO.P,C7,1*%
%TO.N,+BATT*%
X168500000Y-49300000D03*
%TO.P,C7,2*%
%TO.N,GND*%
X171450000Y-49300000D03*
%TD*%
D14*
%TO.P,R53,1*%
%TO.N,Net-(J5-Pin_2)*%
X84525000Y-41850000D03*
%TO.P,R53,2*%
%TO.N,Net-(Q3-G)*%
X82875000Y-41850000D03*
%TD*%
D15*
%TO.P,C6,1*%
%TO.N,+BATT*%
X36125000Y-61250000D03*
%TO.P,C6,2*%
%TO.N,GND*%
X33175000Y-61250000D03*
%TD*%
D20*
%TO.P,R55,1,1*%
%TO.N,Net-(J4-Pin_1)*%
X56100000Y-73390000D03*
%TO.P,R55,2,2*%
%TO.N,GND*%
X56100000Y-81010000D03*
%TD*%
D13*
%TO.P,C9,1*%
%TO.N,+BATT*%
X168500000Y-42900000D03*
%TO.P,C9,2*%
%TO.N,GND*%
X171450000Y-42900000D03*
%TD*%
D14*
%TO.P,R7,1*%
%TO.N,Net-(J2-Pin_2)*%
X119575000Y-43150000D03*
%TO.P,R7,2*%
%TO.N,Net-(Q7-G)*%
X117925000Y-43150000D03*
%TD*%
D13*
%TO.P,C2,1*%
%TO.N,+BATT*%
X168500000Y-70900000D03*
%TO.P,C2,2*%
%TO.N,GND*%
X171450000Y-70900000D03*
%TD*%
D22*
%TO.P,,1*%
%TO.N,+BATT*%
X166400000Y-57000000D03*
%TD*%
D13*
%TO.P,C4,1*%
%TO.N,+BATT*%
X168500000Y-64500000D03*
%TO.P,C4,2*%
%TO.N,GND*%
X171450000Y-64500000D03*
%TD*%
%TO.P,C20,1*%
%TO.N,+BATT*%
X168500000Y-23700000D03*
%TO.P,C20,2*%
%TO.N,GND*%
X171450000Y-23700000D03*
%TD*%
%TO.P,C5,1*%
%TO.N,+BATT*%
X168500000Y-61300000D03*
%TO.P,C5,2*%
%TO.N,GND*%
X171450000Y-61300000D03*
%TD*%
D16*
%TO.P,Q18,1,G*%
%TO.N,Net-(Q18-G)*%
X142480000Y-69950000D03*
D17*
%TO.P,Q18,2,S*%
%TO.N,Net-(J6-Pin_1)*%
X143700000Y-69950000D03*
%TO.P,Q18,3,S*%
X144900000Y-69950000D03*
%TO.P,Q18,4,S*%
X146100000Y-69950000D03*
%TO.P,Q18,5,S*%
X147300000Y-69950000D03*
%TO.P,Q18,6,S*%
X148500000Y-69950000D03*
%TO.P,Q18,7,S*%
X149700000Y-69950000D03*
D18*
%TO.P,Q18,8,S*%
X147340000Y-69250000D03*
D16*
X150920000Y-69950000D03*
D19*
%TO.P,Q18,9,D*%
%TO.N,Phase_C*%
X146700000Y-62650000D03*
%TD*%
D16*
%TO.P,Q12,1,G*%
%TO.N,Net-(Q12-G)*%
X107680000Y-69950000D03*
D17*
%TO.P,Q12,2,S*%
%TO.N,Net-(J3-Pin_1)*%
X108900000Y-69950000D03*
%TO.P,Q12,3,S*%
X110100000Y-69950000D03*
%TO.P,Q12,4,S*%
X111300000Y-69950000D03*
%TO.P,Q12,5,S*%
X112500000Y-69950000D03*
%TO.P,Q12,6,S*%
X113700000Y-69950000D03*
%TO.P,Q12,7,S*%
X114900000Y-69950000D03*
D18*
%TO.P,Q12,8,S*%
X112540000Y-69250000D03*
D16*
X116120000Y-69950000D03*
D19*
%TO.P,Q12,9,D*%
%TO.N,Phase_B*%
X111900000Y-62650000D03*
%TD*%
D13*
%TO.P,C10,1*%
%TO.N,+BATT*%
X168500000Y-39700000D03*
%TO.P,C10,2*%
%TO.N,GND*%
X171450000Y-39700000D03*
%TD*%
D15*
%TO.P,C9,1*%
%TO.N,+BATT*%
X36125000Y-70850000D03*
%TO.P,C9,2*%
%TO.N,GND*%
X33175000Y-70850000D03*
%TD*%
D14*
%TO.P,R6,1*%
%TO.N,Net-(J2-Pin_3)*%
X119525000Y-70900000D03*
%TO.P,R6,2*%
%TO.N,GND*%
X117875000Y-70900000D03*
%TD*%
D13*
%TO.P,C8,1*%
%TO.N,+BATT*%
X168500000Y-46100000D03*
%TO.P,C8,2*%
%TO.N,GND*%
X171450000Y-46100000D03*
%TD*%
D15*
%TO.P,C15,1*%
%TO.N,+BATT*%
X36125000Y-36450000D03*
%TO.P,C15,2*%
%TO.N,GND*%
X33175000Y-36450000D03*
%TD*%
D23*
%TO.P,TH1,1*%
%TO.N,GND*%
X119990000Y-47600000D03*
%TO.P,TH1,2*%
%TO.N,Net-(J2-Pin_6)*%
X121010000Y-47600000D03*
%TD*%
D13*
%TO.P,C1,1*%
%TO.N,+BATT*%
X168500000Y-74100000D03*
%TO.P,C1,2*%
%TO.N,GND*%
X171450000Y-74100000D03*
%TD*%
D15*
%TO.P,C7,1*%
%TO.N,+BATT*%
X36125000Y-64450000D03*
%TO.P,C7,2*%
%TO.N,GND*%
X33175000Y-64450000D03*
%TD*%
D20*
%TO.P,R16,1,1*%
%TO.N,Net-(J4-Pin_1)*%
X66650000Y-73390000D03*
%TO.P,R16,2,2*%
%TO.N,GND*%
X66650000Y-81010000D03*
%TD*%
D16*
%TO.P,Q6,1,G*%
%TO.N,Net-(Q6-G)*%
X51280000Y-69950000D03*
D17*
%TO.P,Q6,2,S*%
%TO.N,Net-(J4-Pin_1)*%
X52500000Y-69950000D03*
%TO.P,Q6,3,S*%
X53700000Y-69950000D03*
%TO.P,Q6,4,S*%
X54900000Y-69950000D03*
%TO.P,Q6,5,S*%
X56100000Y-69950000D03*
%TO.P,Q6,6,S*%
X57300000Y-69950000D03*
%TO.P,Q6,7,S*%
X58500000Y-69950000D03*
D18*
%TO.P,Q6,8,S*%
X56140000Y-69250000D03*
D16*
X59720000Y-69950000D03*
D19*
%TO.P,Q6,9,D*%
%TO.N,Phase_A*%
X55500000Y-62650000D03*
%TD*%
D22*
%TO.P,,2*%
%TO.N,+BATT*%
X38100000Y-57000000D03*
%TD*%
D15*
%TO.P,C10,1*%
%TO.N,+BATT*%
X36125000Y-74050000D03*
%TO.P,C10,2*%
%TO.N,GND*%
X33175000Y-74050000D03*
%TD*%
D24*
%TO.P,J4,1,Pin_1*%
%TO.N,Net-(J4-Pin_1)*%
X85175000Y-76000000D03*
%TO.P,J4,2,Pin_2*%
%TO.N,GND*%
X82825000Y-78000000D03*
%TD*%
D15*
%TO.P,C3,1*%
%TO.N,+BATT*%
X36125000Y-46050000D03*
%TO.P,C3,2*%
%TO.N,GND*%
X33175000Y-46050000D03*
%TD*%
D21*
%TO.P,J5,1,Pin_1*%
%TO.N,GND*%
X82000000Y-55085000D03*
%TO.P,J5,2,Pin_2*%
%TO.N,Net-(J5-Pin_2)*%
X82000000Y-50915000D03*
%TO.P,J5,3,Pin_3*%
%TO.N,Net-(J5-Pin_3)*%
X84000000Y-55085000D03*
%TO.P,J5,4,Pin_4*%
%TO.N,Phase_A*%
X84000000Y-50915000D03*
%TO.P,J5,5,Pin_5*%
%TO.N,GND*%
X86000000Y-55085000D03*
%TO.P,J5,6,Pin_6*%
%TO.N,+BATT*%
X86000000Y-50915000D03*
%TD*%
D16*
%TO.P,Q11,1,G*%
%TO.N,Net-(Q11-G)*%
X86580000Y-44950000D03*
D17*
%TO.P,Q11,2,S*%
%TO.N,Phase_B*%
X87800000Y-44950000D03*
%TO.P,Q11,3,S*%
X89000000Y-44950000D03*
%TO.P,Q11,4,S*%
X90200000Y-44950000D03*
%TO.P,Q11,5,S*%
X91400000Y-44950000D03*
%TO.P,Q11,6,S*%
X92600000Y-44950000D03*
%TO.P,Q11,7,S*%
X93800000Y-44950000D03*
D18*
%TO.P,Q11,8,S*%
X91440000Y-44250000D03*
D16*
X95020000Y-44950000D03*
D19*
%TO.P,Q11,9,D*%
%TO.N,+BATT*%
X90800000Y-37650000D03*
%TD*%
D14*
%TO.P,R49,1*%
%TO.N,Net-(J5-Pin_2)*%
X84525000Y-43350000D03*
%TO.P,R49,2*%
%TO.N,Net-(Q2-G)*%
X82875000Y-43350000D03*
%TD*%
D16*
%TO.P,Q4,1,G*%
%TO.N,Net-(Q4-G)*%
X72380000Y-69950000D03*
D17*
%TO.P,Q4,2,S*%
%TO.N,Net-(J4-Pin_1)*%
X73600000Y-69950000D03*
%TO.P,Q4,3,S*%
X74800000Y-69950000D03*
%TO.P,Q4,4,S*%
X76000000Y-69950000D03*
%TO.P,Q4,5,S*%
X77200000Y-69950000D03*
%TO.P,Q4,6,S*%
X78400000Y-69950000D03*
%TO.P,Q4,7,S*%
X79600000Y-69950000D03*
D18*
%TO.P,Q4,8,S*%
X77240000Y-69250000D03*
D16*
X80820000Y-69950000D03*
D19*
%TO.P,Q4,9,D*%
%TO.N,Phase_A*%
X76600000Y-62650000D03*
%TD*%
D16*
%TO.P,Q1,1,G*%
%TO.N,Net-(Q1-G)*%
X72380000Y-44950000D03*
D17*
%TO.P,Q1,2,S*%
%TO.N,Phase_A*%
X73600000Y-44950000D03*
%TO.P,Q1,3,S*%
X74800000Y-44950000D03*
%TO.P,Q1,4,S*%
X76000000Y-44950000D03*
%TO.P,Q1,5,S*%
X77200000Y-44950000D03*
%TO.P,Q1,6,S*%
X78400000Y-44950000D03*
%TO.P,Q1,7,S*%
X79600000Y-44950000D03*
D18*
%TO.P,Q1,8,S*%
X77240000Y-44250000D03*
D16*
X80820000Y-44950000D03*
D19*
%TO.P,Q1,9,D*%
%TO.N,+BATT*%
X76600000Y-37650000D03*
%TD*%
D15*
%TO.P,C2,1*%
%TO.N,+BATT*%
X36125000Y-42850000D03*
%TO.P,C2,2*%
%TO.N,GND*%
X33175000Y-42850000D03*
%TD*%
%TO.P,C16,1*%
%TO.N,+BATT*%
X36125000Y-33250000D03*
%TO.P,C16,2*%
%TO.N,GND*%
X33175000Y-33250000D03*
%TD*%
D14*
%TO.P,R5,1*%
%TO.N,Net-(J2-Pin_2)*%
X119575000Y-46100000D03*
%TO.P,R5,2*%
%TO.N,Phase_B*%
X117925000Y-46100000D03*
%TD*%
D20*
%TO.P,R17,1,1*%
%TO.N,Net-(J3-Pin_1)*%
X91400000Y-73390000D03*
%TO.P,R17,2,2*%
%TO.N,GND*%
X91400000Y-81010000D03*
%TD*%
D14*
%TO.P,R15,1*%
%TO.N,Net-(J2-Pin_3)*%
X119525000Y-69400000D03*
%TO.P,R15,2*%
%TO.N,Net-(Q12-G)*%
X117875000Y-69400000D03*
%TD*%
D15*
%TO.P,C23,1*%
%TO.N,+BATT*%
X36125000Y-80450000D03*
%TO.P,C23,2*%
%TO.N,GND*%
X33175000Y-80450000D03*
%TD*%
D20*
%TO.P,R12,1,1*%
%TO.N,Net-(J3-Pin_1)*%
X101950000Y-73390000D03*
%TO.P,R12,2,2*%
%TO.N,GND*%
X101950000Y-81010000D03*
%TD*%
D16*
%TO.P,Q7,1,G*%
%TO.N,Net-(Q7-G)*%
X97130000Y-44950000D03*
D17*
%TO.P,Q7,2,S*%
%TO.N,Phase_B*%
X98350000Y-44950000D03*
%TO.P,Q7,3,S*%
X99550000Y-44950000D03*
%TO.P,Q7,4,S*%
X100750000Y-44950000D03*
%TO.P,Q7,5,S*%
X101950000Y-44950000D03*
%TO.P,Q7,6,S*%
X103150000Y-44950000D03*
%TO.P,Q7,7,S*%
X104350000Y-44950000D03*
D18*
%TO.P,Q7,8,S*%
X101990000Y-44250000D03*
D16*
X105570000Y-44950000D03*
D19*
%TO.P,Q7,9,D*%
%TO.N,+BATT*%
X101350000Y-37650000D03*
%TD*%
D15*
%TO.P,C22,1*%
%TO.N,+BATT*%
X36125000Y-83650000D03*
%TO.P,C22,2*%
%TO.N,GND*%
X33175000Y-83650000D03*
%TD*%
D14*
%TO.P,R18,1*%
%TO.N,Net-(J1-Pin_4)*%
X154575000Y-46550000D03*
%TO.P,R18,2*%
%TO.N,Phase_C*%
X152925000Y-46550000D03*
%TD*%
D15*
%TO.P,C19,1*%
%TO.N,+BATT*%
X36125000Y-23650000D03*
%TO.P,C19,2*%
%TO.N,GND*%
X33175000Y-23650000D03*
%TD*%
D14*
%TO.P,R1,1*%
%TO.N,Net-(J5-Pin_2)*%
X84525000Y-44850000D03*
%TO.P,R1,2*%
%TO.N,Net-(Q1-G)*%
X82875000Y-44850000D03*
%TD*%
D20*
%TO.P,R58,1,1*%
%TO.N,Net-(J6-Pin_1)*%
X136750000Y-73390000D03*
%TO.P,R58,2,2*%
%TO.N,GND*%
X136750000Y-81010000D03*
%TD*%
D13*
%TO.P,C3,1*%
%TO.N,+BATT*%
X168500000Y-67700000D03*
%TO.P,C3,2*%
%TO.N,GND*%
X171450000Y-67700000D03*
%TD*%
D14*
%TO.P,R3,1*%
%TO.N,Net-(J5-Pin_2)*%
X84525000Y-46750000D03*
%TO.P,R3,2*%
%TO.N,Phase_A*%
X82875000Y-46750000D03*
%TD*%
D20*
%TO.P,R52,1,1*%
%TO.N,Net-(J6-Pin_1)*%
X126200000Y-73390000D03*
%TO.P,R52,2,2*%
%TO.N,GND*%
X126200000Y-81010000D03*
%TD*%
%TO.P,R61,1,1*%
%TO.N,Net-(J6-Pin_1)*%
X147300000Y-73390000D03*
%TO.P,R61,2,2*%
%TO.N,GND*%
X147300000Y-81010000D03*
%TD*%
D15*
%TO.P,C17,1*%
%TO.N,+BATT*%
X36125000Y-26850000D03*
%TO.P,C17,2*%
%TO.N,GND*%
X33175000Y-26850000D03*
%TD*%
D14*
%TO.P,R50,1*%
%TO.N,Net-(J5-Pin_3)*%
X84275000Y-68350000D03*
%TO.P,R50,2*%
%TO.N,Net-(Q5-G)*%
X82625000Y-68350000D03*
%TD*%
%TO.P,R54,1*%
%TO.N,Net-(J5-Pin_3)*%
X84275000Y-66850000D03*
%TO.P,R54,2*%
%TO.N,Net-(Q6-G)*%
X82625000Y-66850000D03*
%TD*%
D16*
%TO.P,Q10,1,G*%
%TO.N,Net-(Q10-G)*%
X97130000Y-69950000D03*
D17*
%TO.P,Q10,2,S*%
%TO.N,Net-(J3-Pin_1)*%
X98350000Y-69950000D03*
%TO.P,Q10,3,S*%
X99550000Y-69950000D03*
%TO.P,Q10,4,S*%
X100750000Y-69950000D03*
%TO.P,Q10,5,S*%
X101950000Y-69950000D03*
%TO.P,Q10,6,S*%
X103150000Y-69950000D03*
%TO.P,Q10,7,S*%
X104350000Y-69950000D03*
D18*
%TO.P,Q10,8,S*%
X101990000Y-69250000D03*
D16*
X105570000Y-69950000D03*
D19*
%TO.P,Q10,9,D*%
%TO.N,Phase_B*%
X101350000Y-62650000D03*
%TD*%
D14*
%TO.P,R60,1*%
%TO.N,Net-(J1-Pin_3)*%
X154425000Y-69600000D03*
%TO.P,R60,2*%
%TO.N,Net-(Q18-G)*%
X152775000Y-69600000D03*
%TD*%
D24*
%TO.P,J3,1,Pin_1*%
%TO.N,Net-(J3-Pin_1)*%
X120175000Y-76000000D03*
%TO.P,J3,2,Pin_2*%
%TO.N,GND*%
X117825000Y-78000000D03*
%TD*%
D14*
%TO.P,R48,1*%
%TO.N,Net-(J1-Pin_4)*%
X154575000Y-41500000D03*
%TO.P,R48,2*%
%TO.N,Net-(Q13-G)*%
X152925000Y-41500000D03*
%TD*%
%TO.P,R51,1*%
%TO.N,Net-(J1-Pin_3)*%
X154425000Y-66600000D03*
%TO.P,R51,2*%
%TO.N,Net-(Q14-G)*%
X152775000Y-66600000D03*
%TD*%
D16*
%TO.P,Q15,1,G*%
%TO.N,Net-(Q15-G)*%
X131930000Y-44950000D03*
D17*
%TO.P,Q15,2,S*%
%TO.N,Phase_C*%
X133150000Y-44950000D03*
%TO.P,Q15,3,S*%
X134350000Y-44950000D03*
%TO.P,Q15,4,S*%
X135550000Y-44950000D03*
%TO.P,Q15,5,S*%
X136750000Y-44950000D03*
%TO.P,Q15,6,S*%
X137950000Y-44950000D03*
%TO.P,Q15,7,S*%
X139150000Y-44950000D03*
D18*
%TO.P,Q15,8,S*%
X136790000Y-44250000D03*
D16*
X140370000Y-44950000D03*
D19*
%TO.P,Q15,9,D*%
%TO.N,+BATT*%
X136150000Y-37650000D03*
%TD*%
D13*
%TO.P,C23,1*%
%TO.N,+BATT*%
X168500000Y-33300000D03*
%TO.P,C23,2*%
%TO.N,GND*%
X171450000Y-33300000D03*
%TD*%
D22*
%TO.P,,2*%
%TO.N,GND*%
X158400000Y-57000000D03*
%TD*%
D16*
%TO.P,Q16,1,G*%
%TO.N,Net-(Q16-G)*%
X131930000Y-69950000D03*
D17*
%TO.P,Q16,2,S*%
%TO.N,Net-(J6-Pin_1)*%
X133150000Y-69950000D03*
%TO.P,Q16,3,S*%
X134350000Y-69950000D03*
%TO.P,Q16,4,S*%
X135550000Y-69950000D03*
%TO.P,Q16,5,S*%
X136750000Y-69950000D03*
%TO.P,Q16,6,S*%
X137950000Y-69950000D03*
%TO.P,Q16,7,S*%
X139150000Y-69950000D03*
D18*
%TO.P,Q16,8,S*%
X136790000Y-69250000D03*
D16*
X140370000Y-69950000D03*
D19*
%TO.P,Q16,9,D*%
%TO.N,Phase_C*%
X136150000Y-62650000D03*
%TD*%
D16*
%TO.P,Q2,1,G*%
%TO.N,Net-(Q2-G)*%
X61830000Y-44950000D03*
D17*
%TO.P,Q2,2,S*%
%TO.N,Phase_A*%
X63050000Y-44950000D03*
%TO.P,Q2,3,S*%
X64250000Y-44950000D03*
%TO.P,Q2,4,S*%
X65450000Y-44950000D03*
%TO.P,Q2,5,S*%
X66650000Y-44950000D03*
%TO.P,Q2,6,S*%
X67850000Y-44950000D03*
%TO.P,Q2,7,S*%
X69050000Y-44950000D03*
D18*
%TO.P,Q2,8,S*%
X66690000Y-44250000D03*
D16*
X70270000Y-44950000D03*
D19*
%TO.P,Q2,9,D*%
%TO.N,+BATT*%
X66050000Y-37650000D03*
%TD*%
D25*
%TO.P,R47,1*%
%TO.N,Net-(J1-Pin_3)*%
X152775000Y-71800000D03*
%TO.P,R47,2*%
%TO.N,GND*%
X154425000Y-71800000D03*
%TD*%
D22*
%TO.P,,1*%
%TO.N,GND*%
X46100000Y-57000000D03*
%TD*%
D15*
%TO.P,C4,1*%
%TO.N,+BATT*%
X36125000Y-49250000D03*
%TO.P,C4,2*%
%TO.N,GND*%
X33175000Y-49250000D03*
%TD*%
D14*
%TO.P,R57,1*%
%TO.N,Net-(J1-Pin_3)*%
X154425000Y-68100000D03*
%TO.P,R57,2*%
%TO.N,Net-(Q16-G)*%
X152775000Y-68100000D03*
%TD*%
%TO.P,R10,1*%
%TO.N,Net-(J2-Pin_2)*%
X119575000Y-44600000D03*
%TO.P,R10,2*%
%TO.N,Net-(Q9-G)*%
X117925000Y-44600000D03*
%TD*%
D16*
%TO.P,Q17,1,G*%
%TO.N,Net-(Q17-G)*%
X142480000Y-44950000D03*
D17*
%TO.P,Q17,2,S*%
%TO.N,Phase_C*%
X143700000Y-44950000D03*
%TO.P,Q17,3,S*%
X144900000Y-44950000D03*
%TO.P,Q17,4,S*%
X146100000Y-44950000D03*
%TO.P,Q17,5,S*%
X147300000Y-44950000D03*
%TO.P,Q17,6,S*%
X148500000Y-44950000D03*
%TO.P,Q17,7,S*%
X149700000Y-44950000D03*
D18*
%TO.P,Q17,8,S*%
X147340000Y-44250000D03*
D16*
X150920000Y-44950000D03*
D19*
%TO.P,Q17,9,D*%
%TO.N,+BATT*%
X146700000Y-37650000D03*
%TD*%
D16*
%TO.P,Q14,1,G*%
%TO.N,Net-(Q14-G)*%
X121380000Y-70000000D03*
D17*
%TO.P,Q14,2,S*%
%TO.N,Net-(J6-Pin_1)*%
X122600000Y-70000000D03*
%TO.P,Q14,3,S*%
X123800000Y-70000000D03*
%TO.P,Q14,4,S*%
X125000000Y-70000000D03*
%TO.P,Q14,5,S*%
X126200000Y-70000000D03*
%TO.P,Q14,6,S*%
X127400000Y-70000000D03*
%TO.P,Q14,7,S*%
X128600000Y-70000000D03*
D18*
%TO.P,Q14,8,S*%
X126240000Y-69300000D03*
D16*
X129820000Y-70000000D03*
D19*
%TO.P,Q14,9,D*%
%TO.N,Phase_C*%
X125600000Y-62700000D03*
%TD*%
D16*
%TO.P,Q8,1,G*%
%TO.N,Net-(Q8-G)*%
X86580000Y-69950000D03*
D17*
%TO.P,Q8,2,S*%
%TO.N,Net-(J3-Pin_1)*%
X87800000Y-69950000D03*
%TO.P,Q8,3,S*%
X89000000Y-69950000D03*
%TO.P,Q8,4,S*%
X90200000Y-69950000D03*
%TO.P,Q8,5,S*%
X91400000Y-69950000D03*
%TO.P,Q8,6,S*%
X92600000Y-69950000D03*
%TO.P,Q8,7,S*%
X93800000Y-69950000D03*
D18*
%TO.P,Q8,8,S*%
X91440000Y-69250000D03*
D16*
X95020000Y-69950000D03*
D19*
%TO.P,Q8,9,D*%
%TO.N,Phase_B*%
X90800000Y-62650000D03*
%TD*%
D13*
%TO.P,C6,1*%
%TO.N,+BATT*%
X168500000Y-52500000D03*
%TO.P,C6,2*%
%TO.N,GND*%
X171450000Y-52500000D03*
%TD*%
D16*
%TO.P,Q3,1,G*%
%TO.N,Net-(Q3-G)*%
X51280000Y-44950000D03*
D17*
%TO.P,Q3,2,S*%
%TO.N,Phase_A*%
X52500000Y-44950000D03*
%TO.P,Q3,3,S*%
X53700000Y-44950000D03*
%TO.P,Q3,4,S*%
X54900000Y-44950000D03*
%TO.P,Q3,5,S*%
X56100000Y-44950000D03*
%TO.P,Q3,6,S*%
X57300000Y-44950000D03*
%TO.P,Q3,7,S*%
X58500000Y-44950000D03*
D18*
%TO.P,Q3,8,S*%
X56140000Y-44250000D03*
D16*
X59720000Y-44950000D03*
D19*
%TO.P,Q3,9,D*%
%TO.N,+BATT*%
X55500000Y-37650000D03*
%TD*%
D15*
%TO.P,C5,1*%
%TO.N,+BATT*%
X36125000Y-52450000D03*
%TO.P,C5,2*%
%TO.N,GND*%
X33175000Y-52450000D03*
%TD*%
D24*
%TO.P,J6,1,Pin_1*%
%TO.N,Net-(J6-Pin_1)*%
X153675000Y-76000000D03*
%TO.P,J6,2,Pin_2*%
%TO.N,GND*%
X151325000Y-78000000D03*
%TD*%
D15*
%TO.P,C18,1*%
%TO.N,+BATT*%
X36125000Y-30050000D03*
%TO.P,C18,2*%
%TO.N,GND*%
X33175000Y-30050000D03*
%TD*%
D14*
%TO.P,R59,1*%
%TO.N,Net-(J1-Pin_4)*%
X154575000Y-44400000D03*
%TO.P,R59,2*%
%TO.N,Net-(Q17-G)*%
X152925000Y-44400000D03*
%TD*%
D13*
%TO.P,C16,1*%
%TO.N,+BATT*%
X168500000Y-80500000D03*
%TO.P,C16,2*%
%TO.N,GND*%
X171450000Y-80500000D03*
%TD*%
D14*
%TO.P,R2,1*%
%TO.N,Net-(J5-Pin_3)*%
X84275000Y-69750000D03*
%TO.P,R2,2*%
%TO.N,Net-(Q4-G)*%
X82625000Y-69750000D03*
%TD*%
D13*
%TO.P,C15,1*%
%TO.N,+BATT*%
X168500000Y-77300000D03*
%TO.P,C15,2*%
%TO.N,GND*%
X171450000Y-77300000D03*
%TD*%
D21*
%TO.P,J1,1,Pin_1*%
%TO.N,GND*%
X151500000Y-55085000D03*
%TO.P,J1,2,Pin_2*%
%TO.N,Phase_C*%
X151500000Y-50915000D03*
%TO.P,J1,3,Pin_3*%
%TO.N,Net-(J1-Pin_3)*%
X153500000Y-55085000D03*
%TO.P,J1,4,Pin_4*%
%TO.N,Net-(J1-Pin_4)*%
X153500000Y-50915000D03*
%TD*%
D15*
%TO.P,C1,1*%
%TO.N,+BATT*%
X36125000Y-39650000D03*
%TO.P,C1,2*%
%TO.N,GND*%
X33175000Y-39650000D03*
%TD*%
D20*
%TO.P,R13,1,1*%
%TO.N,Net-(J4-Pin_1)*%
X77200000Y-73390000D03*
%TO.P,R13,2,2*%
%TO.N,GND*%
X77200000Y-81010000D03*
%TD*%
D26*
%TO.N,GND*%
X119990000Y-53010000D02*
X119700000Y-53300000D01*
D27*
X82000000Y-55085000D02*
X82000000Y-64895930D01*
X83100000Y-53395000D02*
X82000000Y-54495000D01*
X118000000Y-56085000D02*
X117000000Y-55085000D01*
X151500000Y-55085000D02*
X151500000Y-54295000D01*
X86000000Y-55085000D02*
X86000000Y-54295000D01*
X119700000Y-53300000D02*
X120050000Y-53300000D01*
X117995000Y-53300000D02*
X119700000Y-53300000D01*
X83475000Y-72100000D02*
X83637500Y-72262500D01*
X86000000Y-54295000D02*
X85100000Y-53395000D01*
X82000000Y-64895930D02*
X83475000Y-66370930D01*
X83637500Y-72262500D02*
X85187500Y-73812500D01*
X86750000Y-75375000D02*
X86750000Y-81650000D01*
X121775000Y-83125000D02*
X118900000Y-86000000D01*
X118000000Y-65150000D02*
X118675000Y-65825000D01*
X82625000Y-71250000D02*
X83637500Y-72262500D01*
X147300000Y-79050000D02*
X148350000Y-78000000D01*
X118675000Y-74025000D02*
X118750000Y-74100000D01*
D26*
X119990000Y-47600000D02*
X119990000Y-53010000D01*
D27*
X154795000Y-53395000D02*
X158400000Y-57000000D01*
X112500000Y-81010000D02*
X112500000Y-78700000D01*
X121000000Y-54250000D02*
X121000000Y-55085000D01*
X154425000Y-71800000D02*
X157300000Y-71800000D01*
X120050000Y-53300000D02*
X121000000Y-54250000D01*
X117000000Y-54295000D02*
X117995000Y-53300000D01*
X77200000Y-78800000D02*
X78000000Y-78000000D01*
X78000000Y-78000000D02*
X82825000Y-78000000D01*
X118000000Y-65150000D02*
X118000000Y-56085000D01*
X113200000Y-78000000D02*
X118825000Y-78000000D01*
X148350000Y-78000000D02*
X151325000Y-78000000D01*
X118675000Y-70100000D02*
X118675000Y-74025000D01*
X86000000Y-55085000D02*
X85075000Y-56010000D01*
X118675000Y-65825000D02*
X118675000Y-70100000D01*
X82000000Y-54495000D02*
X82000000Y-55085000D01*
X151500000Y-54295000D02*
X152400000Y-53395000D01*
X118675000Y-70100000D02*
X117875000Y-70900000D01*
X83475000Y-66370930D02*
X83475000Y-72100000D01*
X152400000Y-53395000D02*
X154795000Y-53395000D01*
X85100000Y-53395000D02*
X83100000Y-53395000D01*
X85075000Y-56010000D02*
X85075000Y-73700000D01*
X117000000Y-55085000D02*
X117000000Y-54295000D01*
X120675000Y-74100000D02*
X121775000Y-75200000D01*
X85187500Y-73812500D02*
X86750000Y-75375000D01*
X147300000Y-81010000D02*
X147300000Y-79050000D01*
X118750000Y-74100000D02*
X120675000Y-74100000D01*
D28*
X171450000Y-83700000D02*
X171450000Y-23700000D01*
X33175000Y-83650000D02*
X33175000Y-23650000D01*
D27*
X86750000Y-81650000D02*
X83050000Y-85350000D01*
X85075000Y-73700000D02*
X85187500Y-73812500D01*
X157300000Y-71800000D02*
X157400000Y-71700000D01*
X121775000Y-75200000D02*
X121775000Y-83125000D01*
X112500000Y-78700000D02*
X113200000Y-78000000D01*
X77200000Y-81010000D02*
X77200000Y-78800000D01*
%TO.N,Net-(J1-Pin_3)*%
X152775000Y-71800000D02*
X152775000Y-71475000D01*
X154425000Y-69825000D02*
X154425000Y-66600000D01*
X152775000Y-71475000D02*
X154425000Y-69825000D01*
X154425000Y-66275000D02*
X153500000Y-65350000D01*
X153500000Y-65350000D02*
X153500000Y-55085000D01*
X154425000Y-66600000D02*
X154425000Y-66275000D01*
%TO.N,Net-(J2-Pin_3)*%
X119100000Y-55985000D02*
X119100000Y-65401472D01*
X119100000Y-65401472D02*
X119525000Y-65826472D01*
X119525000Y-65826472D02*
X119525000Y-70900000D01*
%TO.N,Net-(J2-Pin_2)*%
X119575000Y-46100000D02*
X117000000Y-48675000D01*
X117000000Y-48675000D02*
X117000000Y-50915000D01*
X119575000Y-41700000D02*
X119575000Y-46100000D01*
%TO.N,Net-(J4-Pin_1)*%
X77200000Y-75150000D02*
X78050000Y-76000000D01*
X78050000Y-76000000D02*
X85175000Y-76000000D01*
X77200000Y-73390000D02*
X77200000Y-75150000D01*
D26*
%TO.N,+BATT*%
X86000000Y-50915000D02*
X85450000Y-50365000D01*
X52900000Y-40160000D02*
X52900000Y-40500000D01*
X52740000Y-40660000D02*
X52600000Y-40660000D01*
D28*
X36125000Y-23650000D02*
X36125000Y-83650000D01*
X168500000Y-83700000D02*
X168500000Y-23700000D01*
D26*
X85450000Y-50365000D02*
X85450000Y-32200000D01*
%TO.N,Net-(Q2-G)*%
X61830000Y-43650000D02*
X61830000Y-44950000D01*
X82675000Y-43150000D02*
X62330000Y-43150000D01*
X82875000Y-43350000D02*
X82675000Y-43150000D01*
X62330000Y-43150000D02*
X61830000Y-43650000D01*
%TO.N,Net-(Q3-G)*%
X52600000Y-42750000D02*
X51280000Y-44070000D01*
X82875000Y-42162352D02*
X82287352Y-42750000D01*
X51280000Y-44070000D02*
X51280000Y-44950000D01*
X82287352Y-42750000D02*
X52600000Y-42750000D01*
X82875000Y-41850000D02*
X82875000Y-42162352D01*
%TO.N,Net-(Q4-G)*%
X72380000Y-68650000D02*
X72380000Y-69950000D01*
X72480000Y-68550000D02*
X72380000Y-68650000D01*
X81425000Y-68550000D02*
X72480000Y-68550000D01*
X82625000Y-69750000D02*
X81425000Y-68550000D01*
%TO.N,Net-(Q5-G)*%
X82425000Y-68150000D02*
X62750000Y-68150000D01*
X61830000Y-69070000D02*
X61830000Y-69950000D01*
X62750000Y-68150000D02*
X61830000Y-69070000D01*
X82625000Y-68350000D02*
X82425000Y-68150000D01*
%TO.N,Net-(Q6-G)*%
X81725000Y-67750000D02*
X52600000Y-67750000D01*
X51280000Y-69070000D02*
X51280000Y-69950000D01*
X52600000Y-67750000D02*
X51280000Y-69070000D01*
X82625000Y-66850000D02*
X81725000Y-67750000D01*
%TO.N,Net-(Q7-G)*%
X97130000Y-43650000D02*
X97130000Y-44950000D01*
X117925000Y-43150000D02*
X97630000Y-43150000D01*
X97630000Y-43150000D02*
X97130000Y-43650000D01*
%TO.N,Net-(Q8-G)*%
X117875000Y-66400000D02*
X116525000Y-67750000D01*
X116525000Y-67750000D02*
X87480000Y-67750000D01*
X86580000Y-68650000D02*
X86580000Y-69950000D01*
X87480000Y-67750000D02*
X86580000Y-68650000D01*
%TO.N,Net-(Q9-G)*%
X116875000Y-43550000D02*
X107780000Y-43550000D01*
X107780000Y-43550000D02*
X107680000Y-43650000D01*
X107680000Y-43650000D02*
X107680000Y-44950000D01*
X117925000Y-44600000D02*
X116875000Y-43550000D01*
X117925000Y-44337648D02*
X117925000Y-44600000D01*
%TO.N,Net-(Q10-G)*%
X97630000Y-68150000D02*
X97130000Y-68650000D01*
X97130000Y-68650000D02*
X97130000Y-69950000D01*
X117625000Y-68150000D02*
X97630000Y-68150000D01*
X117875000Y-67900000D02*
X117625000Y-68150000D01*
%TO.N,Net-(Q11-G)*%
X117925000Y-41700000D02*
X117925000Y-41955000D01*
X116875000Y-42750000D02*
X87900000Y-42750000D01*
X117925000Y-41700000D02*
X116875000Y-42750000D01*
X86580000Y-44070000D02*
X86580000Y-44950000D01*
X87900000Y-42750000D02*
X86580000Y-44070000D01*
%TO.N,Net-(Q12-G)*%
X117875000Y-69400000D02*
X117025000Y-68550000D01*
X107680000Y-68650000D02*
X107680000Y-69950000D01*
X107780000Y-68550000D02*
X107680000Y-68650000D01*
X117025000Y-68550000D02*
X107780000Y-68550000D01*
%TO.N,Net-(Q13-G)*%
X121380000Y-44070000D02*
X121380000Y-44950000D01*
X151675000Y-42750000D02*
X122700000Y-42750000D01*
X152925000Y-41500000D02*
X151675000Y-42750000D01*
X122700000Y-42750000D02*
X121380000Y-44070000D01*
%TO.N,Net-(Q14-G)*%
X152775000Y-66600000D02*
X151675000Y-67700000D01*
X122100000Y-67700000D02*
X121380000Y-68420000D01*
X121380000Y-68420000D02*
X121380000Y-70000000D01*
X151675000Y-67700000D02*
X122100000Y-67700000D01*
%TO.N,Net-(Q15-G)*%
X152925000Y-42950000D02*
X152725000Y-43150000D01*
X131930000Y-44070000D02*
X131930000Y-44950000D01*
X152725000Y-43150000D02*
X132850000Y-43150000D01*
X132850000Y-43150000D02*
X131930000Y-44070000D01*
%TO.N,Net-(Q16-G)*%
X132900000Y-68100000D02*
X131930000Y-69070000D01*
X152775000Y-68100000D02*
X132900000Y-68100000D01*
X131930000Y-69070000D02*
X131930000Y-69950000D01*
%TO.N,Net-(Q17-G)*%
X142580000Y-43550000D02*
X142480000Y-43650000D01*
X152925000Y-44400000D02*
X152075000Y-43550000D01*
X152075000Y-43550000D02*
X142580000Y-43550000D01*
X142480000Y-43650000D02*
X142480000Y-44950000D01*
%TO.N,Net-(Q18-G)*%
X142480000Y-68650000D02*
X142480000Y-69950000D01*
X142580000Y-68550000D02*
X142480000Y-68650000D01*
X152775000Y-69600000D02*
X151725000Y-68550000D01*
X151725000Y-68550000D02*
X142580000Y-68550000D01*
D27*
%TO.N,Phase_A*%
X82550000Y-53000000D02*
X84000000Y-51550000D01*
D26*
X82875000Y-46700000D02*
X77900000Y-46700000D01*
D27*
X84000000Y-51550000D02*
X84000000Y-50915000D01*
D26*
X77900000Y-46700000D02*
X74600000Y-50000000D01*
X58550000Y-60950000D02*
X58550000Y-60100000D01*
D27*
X77400000Y-53000000D02*
X82550000Y-53000000D01*
%TO.N,Phase_B*%
X118055000Y-52650000D02*
X111950000Y-52650000D01*
X119000000Y-51705000D02*
X118055000Y-52650000D01*
D26*
X114600000Y-46100000D02*
X110550000Y-50150000D01*
X117925000Y-46100000D02*
X114600000Y-46100000D01*
D27*
X119000000Y-50915000D02*
X119000000Y-51705000D01*
%TO.N,Net-(J3-Pin_1)*%
X113250000Y-76000000D02*
X121175000Y-76000000D01*
X112500000Y-75250000D02*
X113250000Y-76000000D01*
X112500000Y-73390000D02*
X112500000Y-75250000D01*
D26*
%TO.N,Phase_C*%
X150920000Y-44990000D02*
X151025000Y-44990000D01*
X152925000Y-46550000D02*
X149250000Y-46550000D01*
D27*
X151500000Y-50915000D02*
X149865000Y-52550000D01*
X149865000Y-52550000D02*
X149500000Y-52550000D01*
D26*
X149250000Y-46550000D02*
X146150000Y-49650000D01*
%TO.N,Net-(Q1-G)*%
X81500000Y-43550000D02*
X72900000Y-43550000D01*
X72900000Y-43550000D02*
X72380000Y-44070000D01*
X72380000Y-44070000D02*
X72380000Y-44950000D01*
X82875000Y-44850000D02*
X82800000Y-44850000D01*
X82800000Y-44850000D02*
X81500000Y-43550000D01*
D27*
%TO.N,Net-(J5-Pin_3)*%
X84300000Y-71225000D02*
X84275000Y-71250000D01*
X84000000Y-55085000D02*
X84300000Y-55385000D01*
X84300000Y-55385000D02*
X84300000Y-71225000D01*
D26*
%TO.N,Net-(J2-Pin_6)*%
X121010000Y-50905000D02*
X121000000Y-50915000D01*
X121010000Y-47600000D02*
X121010000Y-50905000D01*
D27*
%TO.N,Net-(J6-Pin_1)*%
X148100000Y-76000000D02*
X153675000Y-76000000D01*
X147300000Y-75200000D02*
X148100000Y-76000000D01*
X147300000Y-73390000D02*
X147300000Y-75200000D01*
%TO.N,Net-(J1-Pin_4)*%
X153500000Y-50915000D02*
X153500000Y-48900000D01*
X153500000Y-48900000D02*
X154575000Y-47825000D01*
X154575000Y-47825000D02*
X154575000Y-46550000D01*
X154575000Y-41500000D02*
X154575000Y-46550000D01*
%TO.N,Net-(J5-Pin_2)*%
X82000000Y-50915000D02*
X82000000Y-50125000D01*
X84525000Y-47600000D02*
X84525000Y-42200000D01*
X82000000Y-50125000D02*
X84525000Y-47600000D01*
%TD*%
%TA.AperFunction,Conductor*%
%TO.N,+BATT*%
G36*
X154443039Y-17019685D02*
G01*
X154488794Y-17072489D01*
X154500000Y-17124000D01*
X154500000Y-22050000D01*
X151400000Y-22050000D01*
X151400000Y-40460000D01*
X151700000Y-40460000D01*
X151700000Y-41776000D01*
X151680315Y-41843039D01*
X151627511Y-41888794D01*
X151576000Y-41900000D01*
X120724000Y-41900000D01*
X120656961Y-41880315D01*
X120611206Y-41827511D01*
X120600000Y-41776000D01*
X120600000Y-33400000D01*
X116900000Y-33400000D01*
X116900000Y-41776000D01*
X116880315Y-41843039D01*
X116827511Y-41888794D01*
X116776000Y-41900000D01*
X85924000Y-41900000D01*
X85856961Y-41880315D01*
X85811206Y-41827511D01*
X85800000Y-41776000D01*
X85800000Y-33400000D01*
X81600000Y-33400000D01*
X81600000Y-41776000D01*
X81580315Y-41843039D01*
X81527511Y-41888794D01*
X81476000Y-41900000D01*
X51100000Y-41900000D01*
X51100000Y-22000000D01*
X50500000Y-22000000D01*
X50500000Y-17124000D01*
X50519685Y-17056961D01*
X50572489Y-17011206D01*
X50624000Y-17000000D01*
X154376000Y-17000000D01*
X154443039Y-17019685D01*
G37*
%TD.AperFunction*%
%TD*%
%TA.AperFunction,Conductor*%
%TO.N,Phase_C*%
G36*
X130193039Y-43869685D02*
G01*
X130238794Y-43922489D01*
X130250000Y-43974000D01*
X130250000Y-46500000D01*
X132750000Y-46500000D01*
X132750000Y-43974000D01*
X132769685Y-43906961D01*
X132822489Y-43861206D01*
X132874000Y-43850000D01*
X140676000Y-43850000D01*
X140743039Y-43869685D01*
X140788794Y-43922489D01*
X140800000Y-43974000D01*
X140800000Y-46500000D01*
X143300000Y-46500000D01*
X143300000Y-43974500D01*
X143319685Y-43907461D01*
X143372489Y-43861706D01*
X143424000Y-43850500D01*
X151276000Y-43850500D01*
X151343039Y-43870185D01*
X151388794Y-43922989D01*
X151400000Y-43974500D01*
X151400000Y-47976000D01*
X151380315Y-48043039D01*
X151327511Y-48088794D01*
X151276000Y-48100000D01*
X150200000Y-48100000D01*
X150200000Y-57900000D01*
X151576000Y-57900000D01*
X151643039Y-57919685D01*
X151688794Y-57972489D01*
X151700000Y-58024000D01*
X151700000Y-66776000D01*
X151680315Y-66843039D01*
X151627511Y-66888794D01*
X151576000Y-66900000D01*
X120724000Y-66900000D01*
X120656961Y-66880315D01*
X120611206Y-66827511D01*
X120600000Y-66776000D01*
X120600000Y-58324000D01*
X120619685Y-58256961D01*
X120672489Y-58211206D01*
X120724000Y-58200000D01*
X122200000Y-58200000D01*
X122200000Y-43974000D01*
X122219685Y-43906961D01*
X122272489Y-43861206D01*
X122324000Y-43850000D01*
X130126000Y-43850000D01*
X130193039Y-43869685D01*
G37*
%TD.AperFunction*%
%TD*%
%TA.AperFunction,Conductor*%
%TO.N,Net-(J4-Pin_1)*%
G36*
X60093039Y-68869685D02*
G01*
X60138794Y-68922489D01*
X60150000Y-68974000D01*
X60150000Y-71250000D01*
X61349084Y-71250000D01*
X61359262Y-71250500D01*
X61360252Y-71250500D01*
X62300738Y-71250500D01*
X62310916Y-71250000D01*
X62650000Y-71250000D01*
X62650000Y-68974000D01*
X62669685Y-68906961D01*
X62722489Y-68861206D01*
X62774000Y-68850000D01*
X70576000Y-68850000D01*
X70643039Y-68869685D01*
X70688794Y-68922489D01*
X70700000Y-68974000D01*
X70700000Y-71250000D01*
X71899084Y-71250000D01*
X71909262Y-71250500D01*
X71910252Y-71250500D01*
X72850738Y-71250500D01*
X72860916Y-71250000D01*
X73200000Y-71250000D01*
X73200000Y-68974500D01*
X73219685Y-68907461D01*
X73272489Y-68861706D01*
X73324000Y-68850500D01*
X81126000Y-68850500D01*
X81193039Y-68870185D01*
X81238794Y-68922989D01*
X81250000Y-68974500D01*
X81250000Y-75026000D01*
X81230315Y-75093039D01*
X81177511Y-75138794D01*
X81126000Y-75150000D01*
X52224000Y-75150000D01*
X52156961Y-75130315D01*
X52111206Y-75077511D01*
X52100000Y-75026000D01*
X52100000Y-68974000D01*
X52119685Y-68906961D01*
X52172489Y-68861206D01*
X52224000Y-68850000D01*
X60026000Y-68850000D01*
X60093039Y-68869685D01*
G37*
%TD.AperFunction*%
%TD*%
%TA.AperFunction,Conductor*%
%TO.N,Phase_B*%
G36*
X95393039Y-43869685D02*
G01*
X95438794Y-43922489D01*
X95450000Y-43974000D01*
X95450000Y-46500000D01*
X97950000Y-46500000D01*
X97950000Y-43974000D01*
X97969685Y-43906961D01*
X98022489Y-43861206D01*
X98074000Y-43850000D01*
X105876000Y-43850000D01*
X105943039Y-43869685D01*
X105988794Y-43922489D01*
X106000000Y-43974000D01*
X106000000Y-46500000D01*
X108500000Y-46500000D01*
X108500000Y-43974500D01*
X108519685Y-43907461D01*
X108572489Y-43861706D01*
X108624000Y-43850500D01*
X116476000Y-43850500D01*
X116543039Y-43870185D01*
X116588794Y-43922989D01*
X116600000Y-43974500D01*
X116600000Y-47976000D01*
X116580315Y-48043039D01*
X116527511Y-48088794D01*
X116476000Y-48100000D01*
X115800000Y-48100000D01*
X115800000Y-57900000D01*
X116776000Y-57900000D01*
X116843039Y-57919685D01*
X116888794Y-57972489D01*
X116900000Y-58024000D01*
X116900000Y-66776000D01*
X116880315Y-66843039D01*
X116827511Y-66888794D01*
X116776000Y-66900000D01*
X85924000Y-66900000D01*
X85856961Y-66880315D01*
X85811206Y-66827511D01*
X85800000Y-66776000D01*
X85800000Y-58324000D01*
X85819685Y-58256961D01*
X85872489Y-58211206D01*
X85924000Y-58200000D01*
X87400000Y-58200000D01*
X87400000Y-43974000D01*
X87419685Y-43906961D01*
X87472489Y-43861206D01*
X87524000Y-43850000D01*
X95326000Y-43850000D01*
X95393039Y-43869685D01*
G37*
%TD.AperFunction*%
%TD*%
%TA.AperFunction,Conductor*%
%TO.N,Net-(J3-Pin_1)*%
G36*
X95393039Y-68869685D02*
G01*
X95438794Y-68922489D01*
X95450000Y-68974000D01*
X95450000Y-71250000D01*
X96649084Y-71250000D01*
X96659262Y-71250500D01*
X96660252Y-71250500D01*
X97600738Y-71250500D01*
X97610916Y-71250000D01*
X97950000Y-71250000D01*
X97950000Y-68974000D01*
X97969685Y-68906961D01*
X98022489Y-68861206D01*
X98074000Y-68850000D01*
X105876000Y-68850000D01*
X105943039Y-68869685D01*
X105988794Y-68922489D01*
X106000000Y-68974000D01*
X106000000Y-71250000D01*
X107199084Y-71250000D01*
X107209262Y-71250500D01*
X107210252Y-71250500D01*
X108150738Y-71250500D01*
X108160916Y-71250000D01*
X108500000Y-71250000D01*
X108500000Y-68974500D01*
X108519685Y-68907461D01*
X108572489Y-68861706D01*
X108624000Y-68850500D01*
X116426000Y-68850500D01*
X116493039Y-68870185D01*
X116538794Y-68922989D01*
X116550000Y-68974500D01*
X116550000Y-75026000D01*
X116530315Y-75093039D01*
X116477511Y-75138794D01*
X116426000Y-75150000D01*
X87524000Y-75150000D01*
X87456961Y-75130315D01*
X87411206Y-75077511D01*
X87400000Y-75026000D01*
X87400000Y-68974000D01*
X87419685Y-68906961D01*
X87472489Y-68861206D01*
X87524000Y-68850000D01*
X95326000Y-68850000D01*
X95393039Y-68869685D01*
G37*
%TD.AperFunction*%
%TD*%
%TA.AperFunction,Conductor*%
%TO.N,Net-(J6-Pin_1)*%
G36*
X130193039Y-68869685D02*
G01*
X130238794Y-68922489D01*
X130250000Y-68974000D01*
X130250000Y-71250000D01*
X131449084Y-71250000D01*
X131459262Y-71250500D01*
X131460252Y-71250500D01*
X132400738Y-71250500D01*
X132410916Y-71250000D01*
X132750000Y-71250000D01*
X132750000Y-68974000D01*
X132769685Y-68906961D01*
X132822489Y-68861206D01*
X132874000Y-68850000D01*
X140676000Y-68850000D01*
X140743039Y-68869685D01*
X140788794Y-68922489D01*
X140800000Y-68974000D01*
X140800000Y-71250000D01*
X141999084Y-71250000D01*
X142009262Y-71250500D01*
X142010252Y-71250500D01*
X142950738Y-71250500D01*
X142960916Y-71250000D01*
X143300000Y-71250000D01*
X143300000Y-68974500D01*
X143319685Y-68907461D01*
X143372489Y-68861706D01*
X143424000Y-68850500D01*
X151226000Y-68850500D01*
X151293039Y-68870185D01*
X151338794Y-68922989D01*
X151350000Y-68974500D01*
X151350000Y-75026000D01*
X151330315Y-75093039D01*
X151277511Y-75138794D01*
X151226000Y-75150000D01*
X122324000Y-75150000D01*
X122256961Y-75130315D01*
X122211206Y-75077511D01*
X122200000Y-75026000D01*
X122200000Y-68974000D01*
X122219685Y-68906961D01*
X122272489Y-68861206D01*
X122324000Y-68850000D01*
X130126000Y-68850000D01*
X130193039Y-68869685D01*
G37*
%TD.AperFunction*%
%TD*%
%TA.AperFunction,Conductor*%
%TO.N,GND*%
G36*
X171940923Y-22023682D02*
G01*
X171987487Y-22075774D01*
X171999500Y-22129019D01*
X171999500Y-91826000D01*
X171979815Y-91893039D01*
X171927011Y-91938794D01*
X171875500Y-91950000D01*
X153400000Y-91950000D01*
X153400000Y-79250000D01*
X156000000Y-79250000D01*
X156000000Y-55624000D01*
X156019685Y-55556961D01*
X156072489Y-55511206D01*
X156124000Y-55500000D01*
X160726000Y-55500000D01*
X160793039Y-55519685D01*
X160838794Y-55572489D01*
X160850000Y-55624000D01*
X160850000Y-61800000D01*
X163976000Y-61800000D01*
X164043039Y-61819685D01*
X164088794Y-61872489D01*
X164100000Y-61924000D01*
X164100000Y-86000000D01*
X170254992Y-86000000D01*
X170254992Y-22152101D01*
X170274677Y-22085062D01*
X170327481Y-22039307D01*
X170377075Y-22028116D01*
X171873590Y-22005034D01*
X171940923Y-22023682D01*
G37*
%TD.AperFunction*%
%TD*%
%TA.AperFunction,Conductor*%
%TO.N,Phase_A*%
G36*
X60093039Y-43869685D02*
G01*
X60138794Y-43922489D01*
X60150000Y-43974000D01*
X60150000Y-46500000D01*
X62650000Y-46500000D01*
X62650000Y-43974000D01*
X62669685Y-43906961D01*
X62722489Y-43861206D01*
X62774000Y-43850000D01*
X70576000Y-43850000D01*
X70643039Y-43869685D01*
X70688794Y-43922489D01*
X70700000Y-43974000D01*
X70700000Y-46500000D01*
X73200000Y-46500000D01*
X73200000Y-43974500D01*
X73219685Y-43907461D01*
X73272489Y-43861706D01*
X73324000Y-43850500D01*
X81176000Y-43850500D01*
X81243039Y-43870185D01*
X81288794Y-43922989D01*
X81300000Y-43974500D01*
X81300000Y-47976000D01*
X81280315Y-48043039D01*
X81227511Y-48088794D01*
X81176000Y-48100000D01*
X80500000Y-48100000D01*
X80500000Y-57900000D01*
X81475500Y-57900000D01*
X81542539Y-57919685D01*
X81588294Y-57972489D01*
X81599500Y-58024000D01*
X81599500Y-64952951D01*
X81600000Y-64960581D01*
X81600000Y-66776000D01*
X81580315Y-66843039D01*
X81527511Y-66888794D01*
X81476000Y-66900000D01*
X50624000Y-66900000D01*
X50556961Y-66880315D01*
X50511206Y-66827511D01*
X50500000Y-66776000D01*
X50500000Y-58324000D01*
X50519685Y-58256961D01*
X50572489Y-58211206D01*
X50624000Y-58200000D01*
X52100000Y-58200000D01*
X52100000Y-43974000D01*
X52119685Y-43906961D01*
X52172489Y-43861206D01*
X52224000Y-43850000D01*
X60026000Y-43850000D01*
X60093039Y-43869685D01*
G37*
%TD.AperFunction*%
%TD*%
%TA.AperFunction,Conductor*%
%TO.N,+BATT*%
G36*
X169243039Y-22069685D02*
G01*
X169288794Y-22122489D01*
X169300000Y-22174000D01*
X169300000Y-85176000D01*
X169280315Y-85243039D01*
X169227511Y-85288794D01*
X169176000Y-85300000D01*
X166649000Y-85300000D01*
X166581961Y-85280315D01*
X166536206Y-85227511D01*
X166525000Y-85176000D01*
X166525000Y-59700000D01*
X164124000Y-59700000D01*
X164056961Y-59680315D01*
X164011206Y-59627511D01*
X164000000Y-59576000D01*
X164000000Y-52050000D01*
X156174000Y-52050000D01*
X156106961Y-52030315D01*
X156061206Y-51977511D01*
X156050000Y-51926000D01*
X156050000Y-40460000D01*
X151400000Y-40460000D01*
X151400000Y-22050000D01*
X154500000Y-22050000D01*
X169176000Y-22050000D01*
X169243039Y-22069685D01*
G37*
%TD.AperFunction*%
%TD*%
%TA.AperFunction,Conductor*%
%TO.N,GND*%
G36*
X153400000Y-91950000D02*
G01*
X154485775Y-91950000D01*
X154499650Y-96875651D01*
X154480154Y-96942745D01*
X154427479Y-96988649D01*
X154375650Y-97000000D01*
X51224000Y-97000000D01*
X51156961Y-96980315D01*
X51111206Y-96927511D01*
X51100000Y-96876000D01*
X51100000Y-92000000D01*
X51100000Y-79250000D01*
X153400000Y-79250000D01*
X153400000Y-91950000D01*
G37*
%TD.AperFunction*%
%TD*%
%TA.AperFunction,Conductor*%
%TO.N,GND*%
G36*
X34122665Y-22078365D02*
G01*
X34189435Y-22098944D01*
X34234481Y-22152354D01*
X34245008Y-22202354D01*
X34245008Y-86050000D01*
X40400000Y-86050000D01*
X40400000Y-61974000D01*
X40419685Y-61906961D01*
X40472489Y-61861206D01*
X40524000Y-61850000D01*
X43650000Y-61850000D01*
X43650000Y-55674000D01*
X43669685Y-55606961D01*
X43722489Y-55561206D01*
X43774000Y-55550000D01*
X48376000Y-55550000D01*
X48443039Y-55569685D01*
X48488794Y-55622489D01*
X48500000Y-55674000D01*
X48500000Y-79250000D01*
X51100000Y-79250000D01*
X51100000Y-92000000D01*
X32624500Y-92000000D01*
X32557461Y-91980315D01*
X32511706Y-91927511D01*
X32500500Y-91876000D01*
X32500500Y-22182356D01*
X32520185Y-22115317D01*
X32572989Y-22069562D01*
X32626155Y-22058367D01*
X34122665Y-22078365D01*
G37*
%TD.AperFunction*%
%TD*%
%TA.AperFunction,Conductor*%
%TO.N,+BATT*%
G36*
X51100000Y-41900000D02*
G01*
X48550000Y-41900000D01*
X48550000Y-51876000D01*
X48530315Y-51943039D01*
X48477511Y-51988794D01*
X48426000Y-52000000D01*
X40600000Y-52000000D01*
X40600000Y-59526000D01*
X40580315Y-59593039D01*
X40527511Y-59638794D01*
X40476000Y-59650000D01*
X38100000Y-59650000D01*
X38100000Y-85126000D01*
X38080315Y-85193039D01*
X38027511Y-85238794D01*
X37976000Y-85250000D01*
X35424000Y-85250000D01*
X35356961Y-85230315D01*
X35311206Y-85177511D01*
X35300000Y-85126000D01*
X35300000Y-22124000D01*
X35319685Y-22056961D01*
X35372489Y-22011206D01*
X35424000Y-22000000D01*
X50500000Y-22000000D01*
X51100000Y-22000000D01*
X51100000Y-41900000D01*
G37*
%TD.AperFunction*%
%TD*%
M02*
